<?xml version="1.0" encoding="utf-8"?>
<!-- Generator: Adobe Illustrator 15.0.2, SVG Export Plug-In . SVG Version: 6.00 Build 0)  -->
<!DOCTYPE svg PUBLIC "-//W3C//DTD SVG 1.1//EN" "http://www.w3.org/Graphics/SVG/1.1/DTD/svg11.dtd">
<svg version="1.1" id="Group_1_1_" xmlns="http://www.w3.org/2000/svg" xmlns:xlink="http://www.w3.org/1999/xlink" x="0px" y="0px"
	 width="359.695px" height="118.701px" viewBox="0 0 359.695 118.701" enable-background="new 0 0 359.695 118.701"
	 xml:space="preserve">
<g>
	<g>
		<path fill="#FFFFFF" d="M96.791,44.459l0.054-1.21c1.483-0.189,2.426-0.492,2.83-0.907c0.261-0.285,0.462-1.026,0.605-2.225
			l0.231-6.335l0.267-6.442c0.024-0.392,0.036-0.629,0.036-0.712c0-1.673-0.098-2.64-0.293-2.901
			c-0.196-0.261-0.958-0.516-2.287-0.765c-0.333-0.071-0.594-0.13-0.783-0.178c-0.024-0.296-0.036-0.545-0.036-0.748v-0.551
			c0.438-0.036,0.954-0.054,1.546-0.054l5.206,0.178c0.119,0.012,0.284,0.024,0.498,0.036l0.817,0.036
			c0.201,0.241,0.406,0.557,0.616,0.945c0.435,0.868,1.013,2.138,1.736,3.812l0.205,0.477l2.765,6.039
			c0.065,0.14,0.163,0.346,0.292,0.619c0.197,0.418,0.387,0.822,0.57,1.21c0.183,0.389,0.382,0.813,0.599,1.271
			c0.216,0.459,0.41,0.871,0.582,1.235c0.166-0.285,0.326-0.599,0.48-0.943c0.474-1.091,0.937-2.094,1.388-3.008
			c0.783-1.613,1.845-4.081,3.186-7.403c0.213-0.534,0.566-1.337,1.059-2.411c0.493-1.074,0.762-1.64,0.81-1.7
			c0.106-0.095,0.32-0.142,0.64-0.142c0.119,0,0.302-0.006,0.551-0.018c0.616-0.036,1.357-0.065,2.222-0.089
			c1.245-0.012,2.243-0.05,2.996-0.116c0.752-0.065,1.176-0.098,1.271-0.098c0.118,0,0.26,0.012,0.426,0.036
			c0.012,0.167,0.018,0.297,0.018,0.392l-0.036,0.534c0,0.106-0.006,0.267-0.018,0.48c-1.115,0.166-2.023,0.415-2.723,0.747
			c-0.487,0.238-0.729,0.534-0.729,0.89v0.267l0.306,5.446c0.036,0.498,0.131,2.972,0.288,7.421c0.036,0.997,0.114,2.26,0.234,3.791
			c0.024,0.19,0.036,0.338,0.036,0.445c0.012,0.285,0.074,0.469,0.187,0.552c0.113,0.083,1.177,0.427,3.194,1.032
			c0.012,0.19,0.018,0.333,0.018,0.427c0,0.249-0.006,0.498-0.018,0.748c-0.32,0-1.127-0.068-2.42-0.205
			c-1.293-0.136-2.503-0.205-3.63-0.205c-1.72,0-3.393,0.071-5.019,0.214c-0.213,0.024-0.421,0.042-0.623,0.053l0.035-1.229
			c0.486-0.189,1.133-0.35,1.94-0.479c0.569-0.095,0.931-0.255,1.085-0.48c0.154-0.225,0.231-0.854,0.231-1.886
			c0-0.392-0.006-0.736-0.018-1.032c-0.06-1.246-0.095-2.978-0.107-5.197l-0.302-6.282c-0.036-0.89-0.078-1.506-0.125-1.851
			l-4.431,10.179c-0.107,0.238-0.267,0.582-0.48,1.032c-0.273,0.582-0.457,0.979-0.552,1.192c-0.914,2.195-1.548,3.874-1.904,5.037
			c-0.095,0.297-0.237,0.682-0.427,1.157l-1.367-0.018l-0.961-2.723c-0.285-0.712-0.772-1.791-1.46-3.239
			c-0.404-0.842-0.718-1.524-0.944-2.047c-0.107-0.213-0.184-0.374-0.231-0.48l-0.214-0.445c-0.012-0.071-0.03-0.13-0.053-0.178
			l-2.654-5.713l-1.621-3.47l-0.141,8.417l-0.124,5.464c0,0.902,0.169,1.545,0.507,1.931c0.338,0.386,1.064,0.715,2.18,0.988
			l0.854,0.213v1.299c-0.688-0.012-1.427-0.063-2.216-0.151s-1.836-0.133-3.141-0.133C100.023,44.299,98.855,44.352,96.791,44.459z"
			/>
		<path fill="#FFFFFF" d="M130.034,44.477l-0.036-1.157l2.011-0.267c0.296-0.083,0.501-0.205,0.614-0.365
			c0.113-0.16,0.169-0.519,0.169-1.077v-0.196c0-0.142,0.009-0.4,0.026-0.774c0.018-0.374,0.027-0.703,0.027-0.988
			c0-0.225-0.018-0.658-0.053-1.299l0.026-0.89l-0.026-0.836l0.053-2.901c0-0.368-0.036-0.748-0.107-1.139
			c-0.131-0.178-0.37-0.332-0.717-0.463c-0.347-0.13-0.95-0.225-1.81-0.285v-0.997c1.222-0.071,2.295-0.326,3.221-0.765
			c0.628-0.285,1.311-0.789,2.046-1.513h1.192c0.047,1.471,0.071,3.381,0.071,5.73l-0.125,7.261c0,0.499,0.023,0.949,0.071,1.353
			c0.367,0.131,0.967,0.261,1.797,0.392c0.32,0.047,0.575,0.105,0.765,0.178l-0.036,0.979c-0.32,0.012-0.557,0.018-0.71,0.018
			c-0.178,0-0.45-0.012-0.817-0.036c-1.208-0.059-2.824-0.089-4.849-0.089c-0.58,0-1.143,0.021-1.688,0.063
			S130.236,44.477,130.034,44.477z M132.526,23.246c0-0.641,0.208-1.166,0.623-1.575c0.415-0.409,0.949-0.614,1.602-0.614
			c0.7,0,1.281,0.216,1.744,0.649c0.462,0.433,0.694,0.923,0.694,1.468c0,0.403-0.092,0.807-0.276,1.21
			c-0.184,0.404-0.475,0.727-0.872,0.97s-0.804,0.365-1.219,0.365c-0.57,0-1.095-0.243-1.575-0.729
			C132.767,24.504,132.526,23.922,132.526,23.246z"/>
		<path fill="#FFFFFF" d="M154.95,39.832c0.189,0.106,0.332,0.178,0.427,0.213c0.273,0.119,0.492,0.267,0.659,0.445
			c-0.32,1.188-1.098,2.213-2.332,3.079c-1.234,0.866-2.794,1.299-4.68,1.299c-1.187,0-2.361-0.249-3.524-0.748
			c-1.163-0.498-2.088-1.157-2.776-1.975c-0.534-0.629-0.935-1.4-1.202-2.313c-0.267-0.914-0.4-1.691-0.4-2.332
			c0-0.771,0.166-1.646,0.499-2.625c0.332-0.979,0.89-1.901,1.673-2.767c0.783-0.866,1.771-1.554,2.963-2.064
			c1.192-0.51,2.536-0.766,4.031-0.766c2.052,0,3.482,0.32,4.289,0.961c0.807,0.641,1.21,1.281,1.21,1.922
			c0,0.629-0.164,1.124-0.49,1.486c-0.326,0.362-0.774,0.543-1.343,0.543c-0.487,0-0.935-0.16-1.344-0.48
			c-0.409-0.32-0.75-0.86-1.023-1.62c-0.213-0.545-0.486-0.943-0.818-1.192c-0.333-0.237-0.73-0.356-1.192-0.356
			c-1.115,0-2.112,0.478-2.99,1.433s-1.317,2.257-1.317,3.906c0,1.982,0.537,3.557,1.61,4.725c1.074,1.169,2.292,1.753,3.657,1.753
			c0.676,0,1.251-0.077,1.726-0.231c0.296-0.106,0.7-0.338,1.21-0.694c0.13-0.095,0.376-0.35,0.738-0.765
			C154.573,40.253,154.819,39.974,154.95,39.832z"/>
		<path fill="#FFFFFF" d="M157.477,43.355c0.189-0.047,0.718-0.118,1.584-0.213c0.379-0.047,0.617-0.13,0.712-0.249
			c0.118-0.178,0.178-0.599,0.178-1.264v-1.264l0.053-1.335v-1.459l0.018-0.356l-0.018-0.89l0.036-0.303l0.071-6.46v-0.499
			c0-2.207-0.06-3.571-0.178-4.093c-0.071-0.308-0.24-0.552-0.507-0.729c-0.267-0.178-0.893-0.344-1.877-0.499V23.37
			c0-0.178,0.012-0.397,0.036-0.659l1.499-0.32c0.297-0.083,0.583-0.154,0.856-0.213c0.666-0.143,1.505-0.439,2.516-0.89
			c0.179-0.107,0.345-0.196,0.5-0.267l0.965,0.071l-0.036,10.642c1.078-0.854,2.061-1.459,2.949-1.815s1.812-0.534,2.772-0.534
			c0.912,0,1.702,0.163,2.372,0.489c0.669,0.327,1.187,0.73,1.554,1.21c0.367,0.48,0.628,1.065,0.782,1.753
			c0.106,0.463,0.16,1.353,0.16,2.669v1.139l0.018,2.509l-0.089,3.63c0.047,0.107,0.101,0.178,0.16,0.213
			c0.143,0.06,0.492,0.143,1.05,0.249c0.32,0.06,0.569,0.113,0.747,0.16c0.095,0.177,0.143,0.318,0.143,0.424l-0.018,0.142
			c-0.024,0.129-0.036,0.324-0.036,0.583l-0.41,0.027c-0.178,0-0.528-0.023-1.05-0.071c-0.997-0.095-1.833-0.142-2.509-0.142
			c-0.439,0-1.026,0.024-1.762,0.071c-0.522,0.024-1.187,0.036-1.993,0.036c-0.131,0-0.25-0.018-0.356-0.053v-0.427l-0.036-0.231
			c0-0.095,0.029-0.225,0.089-0.391c0.273-0.13,0.59-0.216,0.952-0.258c0.362-0.042,0.703-0.086,1.023-0.133
			c0.047-0.226,0.077-0.368,0.089-0.427l0.089-2.598v-4.36c0-1.293-0.071-2.168-0.213-2.625c-0.143-0.457-0.439-0.83-0.89-1.121
			c-0.451-0.291-0.997-0.436-1.637-0.436c-0.748,0-1.474,0.175-2.18,0.525c-0.706,0.35-1.308,0.763-1.806,1.237v3.115
			c0,1.708-0.015,2.99-0.043,3.844c-0.019,0.51-0.028,0.831-0.028,0.961c0,0.819,0.054,1.382,0.16,1.691
			c0.047,0.142,0.178,0.273,0.392,0.392c0.439,0.036,0.804,0.056,1.095,0.062c0.291,0.006,0.525,0.033,0.703,0.08
			c0.024,0.292,0.036,0.497,0.036,0.614c0,0.164-0.024,0.362-0.071,0.596l-1.979-0.08c-0.749-0.054-1.421-0.08-2.015-0.08
			l-2.497,0.125l-1.748-0.018c-0.119-0.166-0.243-0.462-0.374-0.89v-0.235H157.477z"/>
		<path fill="#FFFFFF" d="M193.391,41.131l0.408,0.267c0.105,0.083,0.172,0.184,0.195,0.303l0.02,0.089
			c-0.285,1.056-0.66,1.783-1.121,2.18c-0.463,0.397-1.039,0.596-1.727,0.596c-0.7,0-1.303-0.193-1.807-0.579
			c-0.504-0.385-0.965-1.065-1.379-2.038c-0.51,0.902-1.229,1.581-2.153,2.038s-2.06,0.685-3.399,0.685
			c-1.234,0-2.142-0.258-2.724-0.774s-0.872-1.195-0.872-2.038c0-0.392,0.086-0.789,0.258-1.192
			c0.172-0.403,0.451-0.804,0.836-1.202c0.386-0.397,1.006-0.833,1.86-1.308c0.131-0.071,0.581-0.273,1.353-0.605l4.432-1.779
			c0.035-0.451,0.054-0.908,0.054-1.371c0-1.602-0.194-2.693-0.587-3.274c-0.237-0.356-0.652-0.534-1.245-0.534
			c-0.595,0-1.14,0.113-1.638,0.338c-0.498,0.226-0.86,0.516-1.086,0.872c-0.166,0.261-0.31,0.753-0.428,1.477
			c-0.082,0.522-0.16,0.825-0.23,0.908c-0.178,0.226-0.501,0.43-0.971,0.614c-0.469,0.184-0.785,0.318-0.951,0.4
			c-0.641,0.309-1.151,0.463-1.531,0.463c-0.167-0.143-0.249-0.344-0.249-0.605c0-0.676,0.142-1.257,0.427-1.744
			c0.427-0.688,1.071-1.355,1.932-2.002c0.859-0.647,1.664-1.101,2.412-1.362c1.02-0.332,2.266-0.498,3.735-0.498
			c0.949,0,1.765,0.175,2.447,0.525c0.682,0.35,1.157,0.869,1.424,1.557s0.399,1.928,0.399,3.72l-0.035,2.936l0.035,2.154v0.551
			c0,0.499,0.067,0.84,0.201,1.023c0.135,0.184,0.307,0.276,0.518,0.276c0.128,0,0.238-0.036,0.332-0.107l0.533-0.836
			L193.391,41.131z M187.552,37.002c-0.676,0.225-1.438,0.602-2.286,1.13c-0.849,0.528-1.438,1.059-1.771,1.593
			c-0.237,0.392-0.356,0.872-0.356,1.441c0,0.51,0.154,0.932,0.463,1.264c0.31,0.332,0.664,0.498,1.068,0.498
			c0.664,0,1.229-0.189,1.689-0.569c0.629-0.51,0.996-0.917,1.104-1.219c0.107-0.302,0.16-1.159,0.16-2.571
			C187.624,38.046,187.6,37.524,187.552,37.002z"/>
		<path fill="#FFFFFF" d="M195.917,35.034c0.31-1.01,0.581-1.681,0.819-2.014c0.664-0.974,1.373-1.734,2.125-2.28
			c0.755-0.547,1.434-0.909,2.039-1.087c0.783-0.225,1.416-0.338,1.904-0.338c1.114,0,2.016,0.086,2.704,0.258
			c0.688,0.172,1.265,0.418,1.726,0.738c0.666,0.462,1.199,0.93,1.604,1.404c0.402,0.474,0.732,1.031,0.987,1.671
			c0.255,0.64,0.396,1.417,0.418,2.329l-1.976-0.034c-0.547,0-1.744-0.052-3.596-0.156c-0.688-0.059-1.163-0.089-1.424-0.089
			c-0.083,0-0.725,0.012-1.922,0.036h-1.53c-0.024,0.167-0.034,0.309-0.034,0.428c0,0.631,0.075,1.294,0.229,1.99
			c0.153,0.696,0.386,1.309,0.694,1.838c0.308,0.529,0.69,0.984,1.147,1.365c0.456,0.381,0.929,0.654,1.414,0.821l1.032,0.339
			c0.914,0,1.523-0.029,1.832-0.089c0.57-0.118,1.072-0.27,1.505-0.454c0.434-0.184,0.958-0.495,1.575-0.935
			c0.427,0.309,0.783,0.587,1.066,0.836c-1.044,1.151-2.126,1.984-3.246,2.5c-1.121,0.516-2.377,0.774-3.766,0.774
			c-0.938,0-1.702-0.083-2.295-0.25c-0.797-0.214-1.514-0.541-2.154-0.98c-0.64-0.439-1.191-0.986-1.654-1.639
			c-0.463-0.653-0.808-1.324-1.031-2.013c-0.297-0.903-0.445-1.627-0.445-2.174C195.667,36.797,195.75,35.865,195.917,35.034z
			 M206.256,34.279c-0.012-0.667-0.143-1.305-0.393-1.913c-0.248-0.608-0.635-1.082-1.155-1.421
			c-0.522-0.34-1.051-0.509-1.584-0.509c-0.795,0-1.513,0.35-2.153,1.05c-0.64,0.7-1.003,1.649-1.086,2.847l4.059,0.036
			c0.261,0,0.629-0.018,1.104-0.053c0.344-0.033,0.587-0.049,0.729-0.049C205.882,34.266,206.042,34.271,206.256,34.279z"/>
		<path fill="#FFFFFF" d="M211.596,43.681c0.262-0.181,0.608-0.295,1.038-0.343c0.824-0.095,1.296-0.22,1.415-0.374
			c0.238-0.308,0.358-0.937,0.358-1.885v-5.014l-0.036-1.191v-3.592l-0.035-4.107v-0.711c0-0.972-0.078-1.689-0.232-2.151
			c-0.418-0.249-0.867-0.374-1.346-0.374c-0.285,0-0.556-0.029-0.807-0.089c-0.035-0.296-0.055-0.516-0.055-0.658
			c0-0.095,0.014-0.202,0.037-0.321c0.936-0.106,1.906-0.347,2.914-0.721c1.006-0.374,1.775-0.756,2.309-1.147l0.494-0.018
			c0.105,0,0.259,0.006,0.459,0.018c0.07,4.102,0.105,6.911,0.105,8.429c0,0.45-0.013,0.812-0.035,1.084v0.106l0.035,0.338v7.877
			l0.035,2.596v0.427c0,0.51,0.082,0.872,0.248,1.084c0.141,0.154,0.441,0.25,0.9,0.285c0.248,0.023,0.736,0.083,1.469,0.177
			c0.059,0.25,0.088,0.451,0.088,0.605c0,0.119-0.012,0.285-0.035,0.498l-1.406-0.064c-0.781-0.053-1.768-0.08-2.953-0.08
			l-0.658-0.016c-0.678,0-1.655,0.054-2.938,0.16h-1.3L211.596,43.681z"/>
		<path fill="#FFFFFF" d="M96.791,88.194l0.054-1.211c1.483-0.188,2.426-0.491,2.83-0.906c0.261-0.285,0.462-1.025,0.605-2.225
			l0.231-6.336l0.267-6.443c0.024-0.391,0.036-0.627,0.036-0.711c0-1.674-0.098-2.641-0.293-2.9s-0.958-0.518-2.287-0.766
			c-0.333-0.071-0.594-0.131-0.783-0.178c-0.024-0.297-0.036-0.547-0.036-0.748V65.22c0.438-0.035,0.954-0.054,1.546-0.054
			l5.206,0.179c0.119,0.012,0.284,0.023,0.498,0.035l0.817,0.035c0.201,0.242,0.406,0.557,0.616,0.945
			c0.435,0.867,1.013,2.138,1.736,3.812l0.205,0.478l2.765,6.037c0.065,0.141,0.163,0.348,0.292,0.621
			c0.197,0.418,0.387,0.82,0.57,1.209s0.382,0.813,0.599,1.271c0.216,0.459,0.41,0.87,0.582,1.234c0.166-0.285,0.326-0.6,0.48-0.943
			c0.474-1.092,0.937-2.094,1.388-3.008c0.783-1.612,1.845-4.08,3.186-7.402c0.213-0.533,0.566-1.338,1.059-2.412
			c0.492-1.072,0.762-1.64,0.81-1.699c0.106-0.095,0.32-0.143,0.64-0.143c0.119,0,0.302-0.006,0.551-0.018
			c0.616-0.035,1.357-0.065,2.222-0.09c1.245-0.012,2.243-0.051,2.996-0.115c0.752-0.064,1.176-0.098,1.271-0.098
			c0.118,0,0.26,0.012,0.426,0.035c0.012,0.166,0.018,0.297,0.018,0.393l-0.036,0.533c0,0.106-0.006,0.268-0.018,0.479
			c-1.115,0.167-2.023,0.416-2.723,0.748c-0.487,0.237-0.729,0.534-0.729,0.89v0.268l0.306,5.445
			c0.036,0.498,0.131,2.973,0.288,7.422c0.036,0.996,0.114,2.26,0.234,3.791c0.024,0.188,0.036,0.338,0.036,0.443
			c0.012,0.285,0.074,0.469,0.187,0.553c0.113,0.082,1.177,0.426,3.194,1.031c0.012,0.189,0.018,0.332,0.018,0.428
			c0,0.25-0.006,0.498-0.018,0.748c-0.32,0-1.127-0.068-2.42-0.205s-2.503-0.205-3.63-0.205c-1.72,0-3.393,0.071-5.019,0.213
			c-0.213,0.024-0.421,0.043-0.623,0.055l0.035-1.229c0.486-0.189,1.133-0.351,1.94-0.479c0.569-0.097,0.931-0.257,1.085-0.481
			s0.231-0.854,0.231-1.886c0-0.392-0.006-0.735-0.018-1.032c-0.06-1.246-0.095-2.978-0.107-5.195l-0.302-6.282
			c-0.036-0.892-0.078-1.507-0.125-1.853l-4.431,10.18c-0.107,0.238-0.267,0.582-0.48,1.033c-0.273,0.582-0.457,0.979-0.552,1.191
			c-0.914,2.195-1.548,3.874-1.904,5.036c-0.095,0.297-0.237,0.683-0.427,1.157l-1.367-0.018l-0.961-2.724
			c-0.285-0.712-0.772-1.792-1.46-3.239c-0.404-0.843-0.718-1.523-0.944-2.047c-0.107-0.214-0.184-0.374-0.231-0.48l-0.214-0.443
			c-0.012-0.071-0.03-0.131-0.053-0.18l-2.654-5.711l-1.621-3.472l-0.141,8.418l-0.124,5.464c0,0.901,0.169,1.545,0.507,1.932
			c0.338,0.386,1.064,0.715,2.18,0.986l0.854,0.215v1.299c-0.688-0.012-1.427-0.063-2.216-0.151s-1.836-0.134-3.141-0.134
			C100.023,88.034,98.855,88.088,96.791,88.194z"/>
		<path fill="#FFFFFF" d="M130.301,73.815c0.13-0.049,0.237-0.084,0.32-0.107h5.303l0.392,0.036l0.036,1.19l-0.053,1.742
			l0.018,0.905l-0.018,2.685v1.83c0,1.196,0.065,2.139,0.196,2.825c0.178,0.521,0.465,0.915,0.863,1.183
			c0.398,0.267,0.881,0.398,1.451,0.398c0.534,0,0.967-0.053,1.299-0.16c0.332-0.105,0.715-0.308,1.148-0.604
			c0.433-0.297,0.709-0.51,0.828-0.641c0.344-0.379,0.581-0.729,0.712-1.049l0.125-4.425c0.023-0.461,0.036-0.841,0.036-1.138
			c0-0.307-0.009-0.695-0.027-1.164c-0.018-0.467-0.026-0.73-0.026-0.789l0.018-0.657l-0.036-0.392
			c-0.285-0.178-0.682-0.291-1.192-0.338l-1.192-0.09c-0.071-0.035-0.136-0.076-0.196-0.123c-0.047-0.238-0.071-0.416-0.071-0.535
			c0-0.143,0.018-0.344,0.053-0.604c0.393-0.061,0.731-0.09,1.017-0.09l2.748,0.036c0.738,0,1.642-0.013,2.713-0.036l0.036,1.333
			l-0.071,1.706l0.036,2.133l-0.018,3.057l-0.036,1.369l0.018,0.924c-0.048,0.615-0.071,0.965-0.071,1.049
			c0,0.295,0.053,0.516,0.16,0.656c0.107,0.144,0.208,0.215,0.303,0.215l1.637-0.055l0.213,0.035
			c0.036,0.416,0.053,0.652,0.053,0.712c0,0.084-0.018,0.214-0.053,0.392c-0.629,0.024-1.08,0.065-1.353,0.125
			c-1.27,0.285-2.658,0.707-4.165,1.265l-0.711-0.036l-0.018-2.9c-0.142,0.119-0.35,0.303-0.623,0.553
			c-1.044,0.925-1.939,1.551-2.687,1.877s-1.53,0.49-2.349,0.49c-0.973,0-1.815-0.203-2.527-0.604
			c-0.711-0.401-1.234-0.899-1.566-1.493c-0.249-0.462-0.416-1.126-0.498-1.99c-0.024-0.226-0.036-1.387-0.036-3.482l0.018-0.569
			c0.059-1.161,0.089-2.021,0.089-2.577c0-0.947-0.018-1.582-0.053-1.9c-0.012-0.154-0.071-0.332-0.178-0.533
			c-0.167-0.071-0.362-0.125-0.587-0.16c-0.759-0.131-1.234-0.255-1.424-0.374c-0.06-0.034-0.089-0.112-0.089-0.231
			c0-0.069,0.009-0.166,0.026-0.283C130.257,74.284,130.277,74.088,130.301,73.815z M136.281,66.092c0.558,0,1.047,0.22,1.468,0.658
			s0.632,0.961,0.632,1.565s-0.213,1.125-0.641,1.558c-0.427,0.435-0.949,0.649-1.566,0.649c-0.617,0-1.136-0.213-1.558-0.642
			c-0.421-0.427-0.631-0.948-0.631-1.565c0-0.604,0.213-1.127,0.641-1.565c0.427-0.438,0.925-0.658,1.495-0.658H136.281z
			 M140,68.396c0-0.674,0.21-1.226,0.632-1.656c0.421-0.432,0.94-0.646,1.557-0.646s1.139,0.217,1.566,0.646
			c0.427,0.432,0.641,0.947,0.641,1.551c0,0.615-0.213,1.135-0.641,1.561c-0.427,0.426-0.949,0.639-1.566,0.639
			c-0.594,0-1.106-0.213-1.54-0.639C140.217,69.424,140,68.938,140,68.396z"/>
		<path fill="#FFFFFF" d="M150.269,87.092c0.189-0.048,0.718-0.118,1.584-0.214c0.379-0.048,0.617-0.131,0.712-0.249
			c0.118-0.178,0.178-0.601,0.178-1.265v-1.264l0.053-1.334v-1.459l0.018-0.356l-0.018-0.89l0.036-0.304l0.071-6.46V72.8
			c0-2.207-0.06-3.57-0.178-4.093c-0.071-0.31-0.24-0.552-0.507-0.729c-0.267-0.179-0.893-0.345-1.877-0.498v-0.375
			c0-0.178,0.012-0.396,0.036-0.658l1.499-0.319c0.297-0.083,0.583-0.153,0.856-0.213c0.666-0.144,1.505-0.438,2.516-0.892
			c0.179-0.105,0.345-0.194,0.5-0.267l0.965,0.071l-0.036,10.643c1.078-0.854,2.061-1.459,2.949-1.814
			c0.888-0.356,1.812-0.534,2.772-0.534c0.912,0,1.702,0.163,2.372,0.489c0.669,0.326,1.187,0.729,1.554,1.209
			c0.367,0.482,0.628,1.066,0.782,1.754c0.106,0.463,0.16,1.354,0.16,2.67v1.139l0.018,2.51l-0.089,3.631
			c0.047,0.106,0.101,0.179,0.16,0.213c0.143,0.061,0.492,0.144,1.05,0.25c0.32,0.06,0.569,0.113,0.747,0.16
			c0.095,0.176,0.143,0.317,0.143,0.424l-0.018,0.142c-0.024,0.13-0.036,0.324-0.036,0.583l-0.41,0.025
			c-0.178,0-0.528-0.022-1.05-0.07c-0.997-0.096-1.833-0.143-2.509-0.143c-0.439,0-1.026,0.023-1.762,0.07
			c-0.522,0.024-1.187,0.036-1.993,0.036c-0.131,0-0.25-0.019-0.356-0.054v-0.428l-0.036-0.23c0-0.096,0.029-0.227,0.089-0.393
			c0.273-0.131,0.59-0.217,0.952-0.258s0.703-0.086,1.023-0.134c0.047-0.226,0.077-0.368,0.089-0.427l0.089-2.6v-4.359
			c0-1.293-0.071-2.168-0.213-2.625c-0.143-0.456-0.439-0.83-0.89-1.121c-0.451-0.291-0.997-0.436-1.637-0.436
			c-0.748,0-1.474,0.174-2.18,0.523c-0.706,0.352-1.308,0.764-1.806,1.237v3.114c0,1.707-0.015,2.988-0.043,3.844
			c-0.019,0.511-0.028,0.83-0.028,0.961c0,0.818,0.054,1.383,0.16,1.689c0.047,0.144,0.178,0.273,0.392,0.393
			c0.439,0.035,0.804,0.057,1.095,0.063s0.525,0.033,0.703,0.08c0.024,0.293,0.036,0.498,0.036,0.614
			c0,0.164-0.024,0.362-0.071,0.597l-1.979-0.08c-0.749-0.054-1.421-0.08-2.015-0.08l-2.497,0.125l-1.748-0.019
			c-0.119-0.166-0.243-0.463-0.374-0.892v-0.228H150.269z"/>
		<path fill="#FFFFFF" d="M169.845,87.417c0.263-0.182,0.609-0.295,1.039-0.344c0.824-0.096,1.295-0.219,1.415-0.373
			c0.239-0.309,0.358-0.938,0.358-1.885v-5.014l-0.036-1.191v-3.592l-0.036-4.107V70.2c0-0.973-0.078-1.689-0.233-2.151
			c-0.418-0.249-0.867-0.372-1.345-0.372c-0.287,0-0.556-0.031-0.807-0.09c-0.036-0.297-0.054-0.518-0.054-0.658
			c0-0.096,0.012-0.201,0.036-0.32c0.936-0.106,1.907-0.348,2.914-0.721c1.007-0.375,1.777-0.757,2.31-1.148l0.493-0.018
			c0.106,0,0.258,0.006,0.458,0.018c0.071,4.103,0.106,6.912,0.106,8.43c0,0.45-0.012,0.813-0.035,1.085v0.106l0.035,0.338v7.877
			l0.036,2.597v0.427c0,0.51,0.083,0.871,0.248,1.086c0.142,0.153,0.442,0.248,0.902,0.283c0.248,0.023,0.737,0.084,1.467,0.178
			c0.059,0.25,0.088,0.451,0.088,0.605c0,0.118-0.012,0.284-0.035,0.498l-1.406-0.063c-0.783-0.055-1.768-0.08-2.955-0.08
			l-0.659-0.018c-0.676,0-1.655,0.055-2.936,0.16h-1.299L169.845,87.417z"/>
		<path fill="#FFFFFF" d="M179.936,66.769l1.519-0.57c0.381-0.143,1.376-0.635,2.982-1.477h0.783c0.202,0,0.381,0.012,0.534,0.035
			c0.013,0.346,0.019,0.582,0.019,0.713l-0.019,0.731l0.106,6.702l-0.035,2.566c0.344-0.38,0.801-0.777,1.369-1.191
			c0.119-0.084,0.445-0.252,0.979-0.508s0.962-0.418,1.281-0.49c0.569-0.129,1.073-0.194,1.513-0.194
			c1.176,0,2.133,0.147,2.874,0.444c0.742,0.297,1.442,0.763,2.101,1.396c0.66,0.635,1.214,1.521,1.664,2.66
			c0.285,0.725,0.428,1.607,0.428,2.65c0,0.678-0.115,1.439-0.348,2.287c-0.23,0.85-0.607,1.677-1.131,2.482
			c-0.379,0.582-0.916,1.151-1.609,1.709c-0.693,0.559-1.492,1.004-2.395,1.336c-0.593,0.225-1.607,0.338-3.043,0.338
			c-1.316,0-2.794-0.486-4.431-1.459c-0.429-0.263-0.736-0.439-0.927-0.535c-0.236,0.344-0.5,0.76-0.791,1.246
			s-0.489,0.808-0.598,0.961l-0.89,0.019c0-0.285,0.015-0.576,0.045-0.873c0.029-0.297,0.044-0.575,0.044-0.837l-0.018-1.318
			L182,85.131c0.023-0.188,0.035-0.522,0.035-0.998V71.112c0-1.307-0.042-2.154-0.125-2.547c-0.023-0.119-0.069-0.205-0.135-0.258
			c-0.066-0.055-0.68-0.295-1.84-0.722L179.936,66.769L179.936,66.769z M185.88,76.521l-0.019,2.776
			c0,3.072,0.074,4.911,0.223,5.517c0.148,0.606,0.543,1.131,1.184,1.576c0.642,0.443,1.316,0.666,2.028,0.666
			c0.522,0,1.044-0.105,1.565-0.32c0.521-0.213,0.92-0.449,1.193-0.711c0.414-0.393,0.723-0.808,0.926-1.246
			c0.319-0.688,0.521-1.316,0.604-1.887c0.105-0.783,0.16-1.406,0.16-1.869c0-0.973-0.198-1.937-0.596-2.892
			c-0.398-0.954-0.955-1.667-1.674-2.136s-1.498-0.703-2.341-0.703c-0.521,0-1.139,0.148-1.851,0.445
			C186.57,76.034,186.105,76.295,185.88,76.521z"/>
		<path fill="#FFFFFF" d="M200.863,78.771c0.31-1.01,0.582-1.683,0.82-2.015c0.664-0.974,1.373-1.733,2.125-2.28
			c0.754-0.547,1.434-0.908,2.039-1.086c0.782-0.227,1.416-0.34,1.903-0.34c1.115,0,2.017,0.086,2.705,0.258
			s1.265,0.418,1.726,0.738c0.666,0.462,1.198,0.932,1.604,1.404c0.402,0.475,0.732,1.031,0.986,1.671
			c0.256,0.642,0.396,1.417,0.418,2.329l-1.976-0.033c-0.546,0-1.743-0.053-3.595-0.156c-0.688-0.059-1.163-0.089-1.424-0.089
			c-0.084,0-0.725,0.013-1.922,0.036h-1.53c-0.024,0.166-0.035,0.309-0.035,0.428c0,0.631,0.076,1.295,0.229,1.989
			c0.154,0.696,0.387,1.31,0.694,1.839c0.31,0.529,0.691,0.984,1.147,1.364c0.457,0.381,0.929,0.653,1.414,0.821l1.033,0.338
			c0.914,0,1.523-0.028,1.832-0.088c0.569-0.119,1.071-0.271,1.504-0.455c0.435-0.184,0.959-0.494,1.576-0.934
			c0.426,0.309,0.782,0.588,1.066,0.836c-1.044,1.15-2.126,1.984-3.247,2.5c-1.121,0.518-2.376,0.774-3.765,0.774
			c-0.938,0-1.702-0.083-2.295-0.25c-0.797-0.213-1.515-0.54-2.154-0.979c-0.641-0.438-1.192-0.984-1.654-1.64
			c-0.463-0.651-0.808-1.323-1.031-2.013c-0.298-0.902-0.445-1.627-0.445-2.174C200.615,80.533,200.698,79.601,200.863,78.771z
			 M211.204,78.017c-0.013-0.668-0.144-1.307-0.392-1.914c-0.25-0.607-0.636-1.082-1.156-1.422c-0.522-0.34-1.051-0.51-1.584-0.51
			c-0.795,0-1.514,0.352-2.153,1.051c-0.642,0.699-1.003,1.648-1.086,2.848l4.058,0.035c0.262,0,0.629-0.019,1.104-0.053
			c0.344-0.033,0.587-0.05,0.729-0.05C210.83,78.002,210.99,78.006,211.204,78.017z"/>
		<path fill="#FFFFFF" d="M217.113,87.313c0.152-0.135,0.354-0.232,0.604-0.293c0.605-0.131,1.182-0.367,1.727-0.711
			c0.106-0.285,0.16-1.244,0.16-2.879c0-2.996-0.064-5.021-0.194-6.076c-0.024-0.188-0.119-0.354-0.285-0.498
			c-0.297-0.153-0.7-0.289-1.21-0.407c-0.237-0.06-0.38-0.188-0.428-0.392l-0.053-0.658c0.877-0.119,1.672-0.42,2.385-0.899
			c0.711-0.479,1.244-0.97,1.602-1.468c0.189-0.271,0.355-0.48,0.498-0.623l1.246-0.035c0.059,0.271,0.089,0.498,0.089,0.676
			c0,0.131-0.006,0.291-0.019,0.48c-0.012,0.416-0.019,0.76-0.019,1.031c0,0.131,0.007,0.623,0.019,1.479
			c0.486-0.831,0.843-1.389,1.068-1.673c0.105-0.132,0.42-0.421,0.942-0.872c0.403-0.297,0.86-0.445,1.37-0.445
			c0.629,0,1.175,0.215,1.638,0.641c0.462,0.429,0.692,0.92,0.692,1.479s-0.174,1.059-0.523,1.504
			c-0.352,0.444-0.816,0.667-1.396,0.667c-0.51,0-1.045-0.214-1.603-0.642c-0.332-0.26-0.599-0.391-0.801-0.391l-0.124,0.018
			c-0.25,0.083-0.477,0.308-0.678,0.675c-0.332,0.591-0.497,1.205-0.497,1.845l0.034,0.479c0.049,0.875,0.084,2.926,0.107,6.154
			c0.035,0.295,0.146,0.59,0.338,0.887c0.213,0.166,0.43,0.283,0.649,0.354c0.22,0.071,0.603,0.131,1.147,0.18
			s0.877,0.123,0.996,0.226c0.118,0.103,0.178,0.269,0.178,0.496c0,0.133-0.035,0.308-0.105,0.522h-1.673l-3.399-0.16
			c-0.854,0-1.632,0.035-2.33,0.106h-0.304c-0.083,0-0.7,0.03-1.851,0.089c-0.036-0.195-0.055-0.343-0.055-0.439
			C217.057,87.64,217.077,87.498,217.113,87.313z"/>
		<path fill="#FFFFFF" d="M234.09,90.599c-1.604-0.404-2.67-0.875-3.203-1.416c-0.533-0.539-0.802-1.142-0.802-1.807
			c0-0.534,0.144-0.943,0.429-1.229c0.283-0.285,1.584-1.086,3.896-2.401c-1.176-0.7-1.98-1.377-2.422-2.029
			c-0.568-0.854-0.854-1.696-0.854-2.526c0-0.748,0.153-1.543,0.463-2.385c0.664-1.211,1.574-2.115,2.731-2.715
			c1.155-0.599,2.647-0.898,4.476-0.898c0.735,0,1.37,0.049,1.904,0.144c0.249,0.047,0.664,0.179,1.245,0.392l0.677,0.25
			c0.605,0.379,1.133,0.771,1.584,1.174c1.021-0.201,1.846-0.409,2.475-0.623c0.438-0.131,0.817-0.195,1.139-0.195
			c0.236,0,0.428,0.102,0.568,0.303c0.144,0.202,0.215,0.678,0.215,1.424c0,0.652-0.09,1.106-0.268,1.361
			c-0.179,0.256-0.361,0.383-0.552,0.383c-0.071,0-0.278-0.082-0.623-0.248c-0.808-0.369-1.453-0.563-1.938-0.588
			c0.283,0.818,0.427,1.596,0.427,2.331c0,0.866-0.253,1.693-0.757,2.481c-0.504,0.789-1.195,1.416-2.073,1.878
			c-1.222,0.653-2.444,0.979-3.666,0.979c-0.783,0-1.315-0.02-1.603-0.055c-0.414-0.047-0.996-0.154-1.744-0.32
			c-1.008,0.559-1.713,1.032-2.116,1.424c-0.202,0.189-0.304,0.416-0.304,0.676c0,0.238,0.104,0.451,0.313,0.642
			c0.207,0.19,0.555,0.32,1.041,0.392c0.095,0.014,0.227,0.037,0.393,0.072c0.629,0.047,1.465,0.07,2.508,0.07
			c0.131,0,0.553-0.018,1.265-0.055c0.202-0.01,0.374-0.018,0.517-0.018c2.836,0,4.822,0.451,5.963,1.354
			c1.127,0.9,1.689,2.004,1.689,3.311c0,0.7-0.199,1.385-0.598,2.057c-0.396,0.67-0.934,1.215-1.609,1.637
			c-0.676,0.421-1.652,0.798-2.928,1.13c-1.276,0.332-2.643,0.499-4.102,0.499c-1.578,0-2.994-0.154-4.246-0.463
			c-1.25-0.309-2.232-0.813-2.945-1.514c-0.545-0.521-0.817-1.08-0.817-1.672c0-0.582,0.229-1.102,0.687-1.559
			C230.979,91.786,232.167,91.237,234.09,90.599z M239.553,96.237c1.756-0.2,3.12-0.676,4.094-1.422
			c0.617-0.487,0.926-0.969,0.926-1.442c0-0.261-0.065-0.517-0.195-0.765c-0.131-0.25-0.365-0.496-0.703-0.738
			c-0.338-0.244-0.721-0.413-1.146-0.508c-0.605-0.118-1.406-0.178-2.403-0.178l-2.188-0.035c-1.922,0-3.211,0.236-3.871,0.711
			c-0.658,0.475-0.986,1.104-0.986,1.887c0,0.415,0.184,0.828,0.552,1.236c0.367,0.41,0.983,0.732,1.851,0.971
			s1.799,0.355,2.795,0.355C238.557,96.31,238.984,96.286,239.553,96.237z M238.54,83.442c0.794,0,1.474-0.34,2.037-1.022
			s0.846-1.741,0.846-3.177c0-1.898-0.253-3.174-0.757-3.826s-1.213-0.979-2.126-0.979c-0.119,0-0.435,0.028-0.942,0.088
			c-0.57,0.106-1.09,0.511-1.559,1.211c-0.469,0.699-0.703,1.637-0.703,2.812c0,0.32,0.042,0.955,0.125,1.904
			c0.035,0.403,0.124,0.754,0.268,1.05c0.201,0.463,0.42,0.822,0.657,1.077s0.556,0.463,0.952,0.623
			C237.734,83.362,238.135,83.442,238.54,83.442z"/>
		<path fill="#FFFFFF" d="M249.359,87.092c0.189-0.048,0.718-0.118,1.584-0.214c0.38-0.048,0.617-0.131,0.711-0.249
			c0.119-0.178,0.18-0.601,0.18-1.265v-1.264l0.053-1.334v-1.459l0.018-0.356l-0.018-0.89l0.036-0.304l0.071-6.46V72.8
			c0-2.207-0.061-3.57-0.18-4.093c-0.07-0.31-0.239-0.552-0.506-0.729c-0.268-0.179-0.894-0.345-1.879-0.498v-0.375
			c0-0.178,0.012-0.396,0.036-0.658l1.499-0.319c0.297-0.083,0.582-0.153,0.855-0.213c0.666-0.144,1.505-0.438,2.517-0.892
			c0.179-0.105,0.345-0.194,0.499-0.267l0.965,0.071l-0.035,10.643c1.078-0.854,2.062-1.459,2.949-1.814
			c0.889-0.356,1.813-0.534,2.771-0.534c0.912,0,1.701,0.163,2.371,0.489s1.188,0.729,1.556,1.209
			c0.366,0.48,0.628,1.066,0.78,1.754c0.106,0.463,0.16,1.354,0.16,2.67v1.139l0.019,2.51l-0.089,3.631
			c0.048,0.106,0.101,0.179,0.16,0.213c0.143,0.061,0.492,0.144,1.05,0.25c0.319,0.06,0.569,0.113,0.748,0.16
			c0.095,0.176,0.143,0.317,0.143,0.424l-0.019,0.142c-0.023,0.13-0.035,0.324-0.035,0.583l-0.409,0.025
			c-0.179,0-0.528-0.022-1.051-0.07c-0.996-0.096-1.833-0.143-2.509-0.143c-0.439,0-1.026,0.023-1.762,0.07
			c-0.522,0.024-1.188,0.036-1.994,0.036c-0.131,0-0.248-0.019-0.355-0.054v-0.428l-0.035-0.23c0-0.096,0.029-0.227,0.089-0.393
			c0.272-0.131,0.591-0.217,0.952-0.258s0.703-0.086,1.023-0.134c0.047-0.226,0.076-0.368,0.089-0.427l0.089-2.6v-4.359
			c0-1.293-0.071-2.168-0.214-2.625c-0.142-0.456-0.438-0.83-0.89-1.121c-0.453-0.291-0.996-0.436-1.638-0.436
			c-0.748,0-1.476,0.174-2.181,0.523c-0.706,0.352-1.309,0.764-1.807,1.237v3.114c0,1.707-0.015,2.988-0.043,3.844
			c-0.02,0.511-0.027,0.83-0.027,0.961c0,0.818,0.053,1.383,0.16,1.689c0.047,0.144,0.178,0.273,0.392,0.393
			c0.438,0.035,0.804,0.057,1.094,0.063c0.291,0.006,0.525,0.033,0.703,0.08c0.022,0.293,0.036,0.498,0.036,0.614
			c0,0.164-0.023,0.362-0.07,0.597l-1.979-0.08c-0.749-0.054-1.421-0.08-2.017-0.08l-2.496,0.125l-1.748-0.019
			c-0.119-0.166-0.244-0.463-0.375-0.892v-0.228H249.359z"/>
		<path fill="#FFFFFF" d="M269.648,73.815c0.129-0.049,0.235-0.084,0.319-0.107h5.304l0.392,0.036l0.036,1.19l-0.055,1.742
			l0.019,0.905l-0.019,2.685v1.83c0,1.196,0.064,2.139,0.195,2.825c0.18,0.521,0.467,0.915,0.863,1.183
			c0.396,0.267,0.881,0.398,1.45,0.398c0.534,0,0.967-0.053,1.3-0.16c0.332-0.105,0.714-0.308,1.146-0.604
			c0.434-0.297,0.709-0.51,0.828-0.641c0.344-0.379,0.582-0.729,0.711-1.049l0.125-4.425c0.023-0.461,0.035-0.841,0.035-1.138
			c0-0.307-0.009-0.695-0.025-1.164c-0.018-0.467-0.026-0.73-0.026-0.789l0.019-0.657l-0.035-0.392
			c-0.285-0.178-0.684-0.291-1.192-0.338l-1.192-0.09c-0.07-0.035-0.137-0.076-0.195-0.123c-0.049-0.238-0.071-0.416-0.071-0.535
			c0-0.143,0.019-0.344,0.054-0.604c0.393-0.061,0.731-0.09,1.018-0.09l2.748,0.036c0.738,0,1.643-0.013,2.713-0.036l0.035,1.333
			l-0.07,1.706l0.035,2.133l-0.018,3.057l-0.035,1.369l0.018,0.924c-0.049,0.615-0.071,0.965-0.071,1.049
			c0,0.295,0.054,0.516,0.16,0.656c0.106,0.144,0.207,0.215,0.304,0.215l1.637-0.055l0.213,0.035
			c0.035,0.416,0.055,0.652,0.055,0.712c0,0.084-0.02,0.214-0.055,0.392c-0.629,0.024-1.079,0.065-1.353,0.125
			c-1.27,0.285-2.657,0.707-4.163,1.265l-0.713-0.036l-0.018-2.9c-0.143,0.119-0.352,0.303-0.623,0.553
			c-1.044,0.925-1.94,1.551-2.688,1.877c-0.748,0.326-1.531,0.49-2.351,0.49c-0.974,0-1.813-0.203-2.526-0.604
			c-0.712-0.401-1.234-0.899-1.566-1.493c-0.248-0.462-0.414-1.126-0.497-1.99c-0.024-0.226-0.036-1.387-0.036-3.482l0.02-0.569
			c0.059-1.161,0.088-2.021,0.088-2.577c0-0.947-0.019-1.582-0.054-1.9c-0.012-0.154-0.071-0.332-0.178-0.533
			c-0.167-0.071-0.362-0.125-0.588-0.16c-0.759-0.131-1.233-0.255-1.423-0.374c-0.061-0.034-0.09-0.112-0.09-0.231
			c0-0.069,0.01-0.166,0.026-0.283C269.604,74.287,269.624,74.088,269.648,73.815z"/>
		<path fill="#FFFFFF" d="M289.668,66.769l1.52-0.57c0.381-0.143,1.375-0.635,2.983-1.477h0.783c0.2,0,0.379,0.012,0.532,0.035
			c0.013,0.346,0.02,0.582,0.02,0.713l-0.02,0.731l0.107,6.702l-0.035,2.566c0.344-0.38,0.801-0.777,1.369-1.191
			c0.119-0.084,0.445-0.252,0.979-0.508c0.533-0.256,0.961-0.418,1.281-0.49c0.568-0.129,1.072-0.194,1.513-0.194
			c1.175,0,2.132,0.147,2.874,0.444c0.741,0.297,1.44,0.763,2.1,1.396c0.659,0.635,1.213,1.521,1.664,2.66
			c0.285,0.725,0.428,1.607,0.428,2.65c0,0.678-0.115,1.439-0.348,2.287c-0.23,0.85-0.608,1.677-1.13,2.482
			c-0.38,0.582-0.917,1.151-1.61,1.709c-0.693,0.559-1.492,1.004-2.394,1.336c-0.594,0.225-1.608,0.338-3.044,0.338
			c-1.316,0-2.794-0.486-4.431-1.459c-0.429-0.263-0.736-0.439-0.927-0.535c-0.237,0.344-0.501,0.76-0.792,1.246
			s-0.488,0.808-0.596,0.961l-0.891,0.019c0-0.285,0.016-0.576,0.045-0.873s0.045-0.575,0.045-0.837l-0.02-1.318l0.055-0.463
			c0.022-0.189,0.035-0.521,0.035-0.998v-13.02c0-1.307-0.041-2.155-0.125-2.547c-0.024-0.119-0.07-0.205-0.136-0.26
			c-0.065-0.054-0.679-0.293-1.84-0.721v-0.816H289.668z M295.613,76.521l-0.018,2.776c0,3.072,0.072,4.911,0.221,5.517
			c0.149,0.606,0.543,1.131,1.185,1.576c0.642,0.443,1.317,0.666,2.029,0.666c0.521,0,1.044-0.105,1.564-0.32
			c0.522-0.213,0.92-0.449,1.192-0.711c0.416-0.393,0.724-0.808,0.926-1.246c0.32-0.688,0.522-1.316,0.605-1.887
			c0.105-0.783,0.159-1.406,0.159-1.869c0-0.973-0.198-1.937-0.597-2.892c-0.397-0.954-0.955-1.667-1.673-2.136
			s-1.498-0.703-2.34-0.703c-0.522,0-1.14,0.148-1.851,0.445S295.837,76.295,295.613,76.521z"/>
		<path fill="#FFFFFF" d="M310.597,78.771c0.31-1.01,0.581-1.683,0.819-2.015c0.664-0.974,1.373-1.733,2.126-2.28
			c0.754-0.547,1.433-0.908,2.038-1.086c0.783-0.227,1.417-0.34,1.904-0.34c1.114,0,2.017,0.086,2.704,0.258
			c0.688,0.172,1.265,0.418,1.727,0.738c0.665,0.462,1.198,0.932,1.603,1.404c0.402,0.475,0.732,1.031,0.987,1.671
			c0.255,0.642,0.396,1.417,0.418,2.329l-1.976-0.033c-0.546,0-1.744-0.053-3.596-0.156c-0.688-0.059-1.163-0.089-1.424-0.089
			c-0.083,0-0.724,0.013-1.922,0.036h-1.53c-0.023,0.166-0.034,0.309-0.034,0.428c0,0.631,0.075,1.295,0.229,1.989
			c0.154,0.696,0.386,1.31,0.694,1.839s0.69,0.984,1.147,1.364c0.456,0.381,0.929,0.653,1.414,0.821l1.032,0.338
			c0.914,0,1.524-0.028,1.833-0.088c0.569-0.119,1.071-0.271,1.504-0.455c0.434-0.184,0.958-0.494,1.575-0.934
			c0.427,0.309,0.783,0.588,1.067,0.836c-1.045,1.15-2.127,1.984-3.247,2.5c-1.121,0.518-2.376,0.774-3.766,0.774
			c-0.938,0-1.702-0.083-2.295-0.25c-0.796-0.213-1.514-0.54-2.154-0.979c-0.64-0.438-1.191-0.984-1.653-1.64
			c-0.463-0.651-0.809-1.323-1.032-2.013c-0.297-0.902-0.445-1.627-0.445-2.174C310.348,80.533,310.431,79.601,310.597,78.771z
			 M320.937,78.017c-0.012-0.668-0.143-1.307-0.392-1.914s-0.635-1.082-1.156-1.422s-1.051-0.51-1.584-0.51
			c-0.795,0-1.513,0.352-2.152,1.051c-0.642,0.699-1.003,1.648-1.086,2.848l4.058,0.035c0.261,0,0.629-0.019,1.104-0.053
			c0.345-0.033,0.588-0.05,0.729-0.05C320.563,78.002,320.723,78.006,320.937,78.017z"/>
		<path fill="#FFFFFF" d="M326.846,87.313c0.153-0.135,0.355-0.232,0.604-0.293c0.604-0.131,1.181-0.367,1.727-0.711
			c0.106-0.285,0.16-1.244,0.16-2.879c0-2.996-0.064-5.021-0.195-6.076c-0.023-0.188-0.118-0.354-0.284-0.498
			c-0.298-0.153-0.7-0.289-1.21-0.407c-0.237-0.06-0.381-0.188-0.429-0.392l-0.053-0.658c0.878-0.119,1.673-0.42,2.385-0.899
			s1.245-0.97,1.603-1.468c0.188-0.271,0.354-0.48,0.498-0.623l1.246-0.035c0.059,0.271,0.089,0.498,0.089,0.676
			c0,0.131-0.007,0.291-0.019,0.48c-0.013,0.416-0.019,0.76-0.019,1.031c0,0.131,0.006,0.623,0.019,1.479
			c0.486-0.831,0.842-1.389,1.067-1.673c0.105-0.132,0.421-0.421,0.942-0.872c0.403-0.297,0.86-0.445,1.37-0.445
			c0.629,0,1.175,0.215,1.639,0.641c0.462,0.429,0.692,0.92,0.692,1.479s-0.175,1.059-0.523,1.504
			c-0.352,0.444-0.816,0.667-1.397,0.667c-0.51,0-1.044-0.214-1.602-0.642c-0.332-0.26-0.6-0.391-0.802-0.391l-0.123,0.018
			c-0.25,0.083-0.477,0.308-0.678,0.675c-0.332,0.591-0.498,1.205-0.498,1.845l0.035,0.479c0.048,0.875,0.083,2.926,0.107,6.154
			c0.035,0.295,0.146,0.59,0.338,0.887c0.213,0.166,0.43,0.283,0.648,0.354c0.221,0.071,0.603,0.131,1.147,0.18
			c0.546,0.049,0.878,0.123,0.997,0.226c0.118,0.103,0.178,0.269,0.178,0.496c0,0.133-0.035,0.308-0.105,0.522h-1.674l-3.398-0.16
			c-0.854,0-1.632,0.035-2.331,0.106h-0.303c-0.083,0-0.7,0.03-1.852,0.089c-0.036-0.195-0.054-0.343-0.054-0.439
			C326.79,87.64,326.81,87.498,326.846,87.313z"/>
	</g>
	<g>
		<path fill="#FFFFFF" d="M50.505,28.664c4.587,0,9.06,1.173,13.417,3.518c4.357,2.345,7.759,5.703,10.207,10.072
			c2.447,4.37,3.671,8.925,3.671,13.666c0,4.716-1.205,9.24-3.613,13.571c-2.41,4.332-5.78,7.695-10.111,10.092
			s-8.855,3.594-13.57,3.594c-4.716,0-9.233-1.197-13.551-3.594c-4.319-2.396-7.683-5.76-10.091-10.092
			c-2.409-4.331-3.614-8.854-3.614-13.571c0-4.741,1.224-9.296,3.671-13.666c2.447-4.37,5.849-7.727,10.207-10.072
			C41.483,29.836,45.943,28.664,50.505,28.664z M50.524,32.085c-3.995,0-7.894,1.025-11.697,3.076
			c-3.803,2.051-6.773,4.992-8.912,8.823c-2.139,3.832-3.207,7.81-3.207,11.936c0,4.127,1.05,8.081,3.15,11.86
			c2.1,3.781,5.044,6.722,8.834,8.822c3.79,2.103,7.733,3.152,11.831,3.152c4.123,0,8.073-1.051,11.85-3.152
			s6.716-5.041,8.815-8.822c2.1-3.779,3.15-7.732,3.15-11.86c0-4.126-1.063-8.104-3.188-11.936c-2.125-3.831-5.09-6.772-8.893-8.823
			C58.456,33.11,54.544,32.085,50.524,32.085z M63.383,39.504v10.149h-1.461c-0.512-2.6-1.631-4.641-3.357-6.121
			c-1.727-1.479-3.753-2.221-6.081-2.221c-2.813,0-5.167,1.121-7.06,3.364c-1.893,2.243-2.839,5.786-2.839,10.629
			c0,5.177,0.927,8.868,2.782,11.072c1.854,2.204,4.163,3.307,6.925,3.307c3.786,0,7.124-1.77,10.015-5.306v2.69
			c-3.097,3.254-7.167,4.883-12.208,4.883c-4.812,0-8.708-1.455-11.69-4.363c-2.981-2.908-4.473-6.671-4.473-11.284
			c0-4.895,1.6-8.932,4.799-12.109c3.199-3.177,7.231-4.767,12.094-4.767c2.201,0,4.723,0.525,7.564,1.576
			c0.818,0.308,1.407,0.461,1.766,0.461c0.461,0,0.852-0.154,1.171-0.461s0.519-0.807,0.595-1.5L63.383,39.504L63.383,39.504z"/>
	</g>
</g>
</svg>
