<?xml version="1.0" encoding="utf-8"?>
<!-- Generator: Adobe Illustrator 15.0.2, SVG Export Plug-In . SVG Version: 6.00 Build 0)  -->
<!DOCTYPE svg PUBLIC "-//W3C//DTD SVG 1.1//EN" "http://www.w3.org/Graphics/SVG/1.1/DTD/svg11.dtd">
<svg version="1.1" id="Group_1_1_" xmlns="http://www.w3.org/2000/svg" xmlns:xlink="http://www.w3.org/1999/xlink" x="0px" y="0px"
	 width="359.695px" height="118.701px" viewBox="0 0 359.695 118.701" enable-background="new 0 0 359.695 118.701"
	 xml:space="preserve">
<g id="Shape_1" opacity="0.5098">
	<g>
		<path fill="#BFBFBF" d="M346.732,0H12.931C5.79,0,0,9.183,0,20.51v98.191h359.662V20.51C359.662,9.183,353.873,0,346.732,0z"/>
	</g>
</g>
<g>
	<g>
		<path fill="#FFFFFF" d="M96.791,44.459l0.054-1.21c1.483-0.189,2.426-0.492,2.83-0.907c0.261-0.285,0.462-1.026,0.605-2.225
			l0.231-6.335l0.267-6.442c0.024-0.392,0.036-0.629,0.036-0.712c0-1.673-0.098-2.64-0.293-2.901
			c-0.196-0.261-0.958-0.516-2.287-0.765c-0.333-0.071-0.594-0.13-0.783-0.178c-0.024-0.296-0.036-0.545-0.036-0.748v-0.551
			c0.438-0.036,0.954-0.054,1.546-0.054l5.206,0.178c0.119,0.012,0.284,0.024,0.498,0.036l0.817,0.036
			c0.201,0.241,0.406,0.557,0.616,0.945c0.435,0.868,1.013,2.138,1.736,3.812l0.205,0.477l2.765,6.039
			c0.065,0.14,0.163,0.346,0.292,0.619c0.197,0.418,0.387,0.822,0.57,1.21c0.183,0.389,0.382,0.813,0.599,1.271
			c0.216,0.459,0.41,0.871,0.582,1.235c0.166-0.285,0.326-0.599,0.48-0.943c0.474-1.091,0.937-2.094,1.388-3.008
			c0.783-1.613,1.845-4.081,3.186-7.403c0.213-0.534,0.566-1.337,1.059-2.411s0.762-1.64,0.81-1.7
			c0.106-0.095,0.32-0.142,0.64-0.142c0.119,0,0.302-0.006,0.551-0.018c0.616-0.036,1.357-0.065,2.222-0.089
			c1.245-0.012,2.243-0.05,2.996-0.116c0.752-0.065,1.176-0.098,1.271-0.098c0.118,0,0.26,0.012,0.426,0.036
			c0.012,0.167,0.018,0.297,0.018,0.392l-0.036,0.534c0,0.106-0.006,0.267-0.018,0.48c-1.115,0.166-2.023,0.415-2.723,0.747
			c-0.487,0.238-0.729,0.534-0.729,0.89v0.267l0.306,5.446c0.036,0.498,0.131,2.972,0.288,7.421c0.036,0.997,0.114,2.26,0.234,3.791
			c0.024,0.19,0.036,0.338,0.036,0.445c0.012,0.285,0.074,0.469,0.187,0.552s1.177,0.427,3.194,1.032
			c0.012,0.19,0.018,0.333,0.018,0.427c0,0.249-0.006,0.498-0.018,0.748c-0.32,0-1.127-0.068-2.42-0.205
			c-1.293-0.136-2.503-0.205-3.63-0.205c-1.72,0-3.393,0.071-5.019,0.214c-0.213,0.024-0.421,0.042-0.623,0.053l0.035-1.228
			c0.486-0.189,1.133-0.35,1.94-0.48c0.569-0.095,0.931-0.255,1.085-0.48c0.154-0.225,0.231-0.854,0.231-1.886
			c0-0.392-0.006-0.736-0.018-1.032c-0.06-1.246-0.095-2.978-0.107-5.197l-0.302-6.282c-0.036-0.89-0.078-1.506-0.125-1.851
			l-4.431,10.179c-0.107,0.238-0.267,0.582-0.48,1.032c-0.273,0.582-0.457,0.979-0.552,1.192c-0.914,2.195-1.548,3.874-1.904,5.037
			c-0.095,0.297-0.237,0.682-0.427,1.157l-1.367-0.018l-0.961-2.723c-0.285-0.712-0.772-1.791-1.46-3.239
			c-0.404-0.842-0.718-1.524-0.944-2.047c-0.107-0.213-0.184-0.374-0.231-0.48l-0.214-0.445c-0.012-0.071-0.03-0.13-0.053-0.178
			l-2.654-5.713l-1.621-3.47l-0.141,8.417l-0.124,5.464c0,0.902,0.169,1.545,0.507,1.931c0.338,0.386,1.064,0.715,2.18,0.988
			l0.854,0.213v1.299c-0.688-0.012-1.427-0.063-2.216-0.151s-1.836-0.133-3.141-0.133C100.023,44.299,98.855,44.352,96.791,44.459z"
			/>
		<path fill="#FFFFFF" d="M130.034,44.477l-0.036-1.157l2.011-0.267c0.296-0.083,0.501-0.205,0.614-0.365s0.169-0.519,0.169-1.077
			v-0.196c0-0.142,0.009-0.4,0.026-0.774c0.018-0.374,0.027-0.703,0.027-0.988c0-0.225-0.018-0.658-0.053-1.299l0.026-0.89
			l-0.026-0.836l0.053-2.901c0-0.368-0.036-0.748-0.107-1.139c-0.131-0.178-0.37-0.332-0.717-0.463
			c-0.347-0.13-0.95-0.225-1.81-0.285v-0.997c1.222-0.071,2.295-0.326,3.221-0.765c0.628-0.285,1.311-0.789,2.046-1.513h1.192
			c0.047,1.471,0.071,3.381,0.071,5.73l-0.125,7.261c0,0.499,0.023,0.949,0.071,1.353c0.367,0.131,0.967,0.261,1.797,0.392
			c0.32,0.047,0.575,0.106,0.765,0.178l-0.036,0.979c-0.32,0.012-0.557,0.018-0.71,0.018c-0.178,0-0.45-0.012-0.817-0.036
			c-1.208-0.059-2.824-0.089-4.849-0.089c-0.58,0-1.143,0.021-1.688,0.063S130.236,44.477,130.034,44.477z M132.526,23.246
			c0-0.641,0.208-1.166,0.623-1.575c0.415-0.409,0.949-0.614,1.602-0.614c0.7,0,1.281,0.216,1.744,0.649
			c0.462,0.433,0.694,0.923,0.694,1.468c0,0.403-0.092,0.807-0.276,1.21c-0.184,0.404-0.475,0.727-0.872,0.97
			s-0.804,0.365-1.219,0.365c-0.57,0-1.095-0.243-1.575-0.729S132.526,23.922,132.526,23.246z"/>
		<path fill="#FFFFFF" d="M154.95,39.832c0.189,0.106,0.332,0.178,0.427,0.213c0.273,0.119,0.492,0.267,0.659,0.445
			c-0.32,1.187-1.098,2.213-2.332,3.079c-1.234,0.866-2.794,1.299-4.68,1.299c-1.187,0-2.361-0.249-3.524-0.748
			c-1.163-0.498-2.088-1.157-2.776-1.975c-0.534-0.629-0.935-1.4-1.202-2.313c-0.267-0.914-0.4-1.691-0.4-2.332
			c0-0.771,0.166-1.646,0.499-2.625c0.332-0.979,0.89-1.901,1.673-2.767c0.783-0.866,1.771-1.554,2.963-2.064
			s2.536-0.766,4.031-0.766c2.052,0,3.482,0.32,4.289,0.961c0.807,0.641,1.21,1.281,1.21,1.922c0,0.629-0.164,1.124-0.49,1.486
			c-0.326,0.362-0.774,0.543-1.343,0.543c-0.487,0-0.935-0.16-1.344-0.48s-0.75-0.86-1.023-1.62
			c-0.213-0.545-0.486-0.943-0.818-1.192c-0.333-0.237-0.73-0.356-1.192-0.356c-1.115,0-2.112,0.478-2.99,1.433
			c-0.878,0.955-1.317,2.257-1.317,3.906c0,1.982,0.537,3.557,1.61,4.725c1.074,1.169,2.292,1.753,3.657,1.753
			c0.676,0,1.251-0.077,1.726-0.231c0.296-0.106,0.7-0.338,1.21-0.694c0.13-0.095,0.376-0.35,0.738-0.765
			C154.573,40.253,154.819,39.974,154.95,39.832z"/>
		<path fill="#FFFFFF" d="M157.477,43.355c0.189-0.047,0.718-0.118,1.584-0.213c0.379-0.047,0.617-0.13,0.712-0.249
			c0.118-0.178,0.178-0.599,0.178-1.264v-1.264l0.053-1.335v-1.459l0.018-0.356l-0.018-0.89l0.036-0.303l0.071-6.46v-0.499
			c0-2.207-0.06-3.571-0.178-4.093c-0.071-0.308-0.24-0.552-0.507-0.729c-0.267-0.178-0.893-0.344-1.877-0.499V23.37
			c0-0.178,0.012-0.397,0.036-0.659l1.499-0.32c0.297-0.083,0.583-0.154,0.856-0.213c0.666-0.143,1.505-0.439,2.516-0.89
			c0.179-0.107,0.345-0.196,0.5-0.267l0.965,0.071l-0.036,10.642c1.078-0.854,2.061-1.459,2.949-1.815
			c0.888-0.356,1.812-0.534,2.772-0.534c0.912,0,1.702,0.163,2.372,0.489c0.669,0.327,1.187,0.73,1.554,1.21
			s0.628,1.065,0.782,1.753c0.106,0.463,0.16,1.353,0.16,2.669v1.139l0.018,2.509l-0.089,3.63c0.047,0.107,0.101,0.178,0.16,0.213
			c0.143,0.06,0.492,0.143,1.05,0.249c0.32,0.06,0.569,0.113,0.747,0.16c0.095,0.177,0.143,0.318,0.143,0.424l-0.018,0.142
			c-0.024,0.129-0.036,0.324-0.036,0.583l-0.41,0.027c-0.178,0-0.528-0.023-1.05-0.071c-0.997-0.095-1.833-0.142-2.509-0.142
			c-0.439,0-1.026,0.024-1.762,0.071c-0.522,0.024-1.187,0.036-1.993,0.036c-0.131,0-0.25-0.018-0.356-0.053v-0.427l-0.036-0.231
			c0-0.095,0.029-0.225,0.089-0.391c0.273-0.13,0.59-0.216,0.952-0.258c0.362-0.042,0.703-0.086,1.023-0.133
			c0.047-0.226,0.077-0.368,0.089-0.427l0.089-2.598v-4.36c0-1.293-0.071-2.168-0.213-2.625c-0.143-0.457-0.439-0.83-0.89-1.121
			c-0.451-0.291-0.997-0.436-1.637-0.436c-0.748,0-1.474,0.175-2.18,0.525c-0.706,0.35-1.308,0.763-1.806,1.237v3.115
			c0,1.708-0.015,2.99-0.043,3.844c-0.019,0.51-0.028,0.831-0.028,0.961c0,0.819,0.054,1.382,0.16,1.691
			c0.047,0.142,0.178,0.273,0.392,0.392c0.439,0.036,0.804,0.056,1.095,0.062c0.291,0.006,0.525,0.033,0.703,0.08
			c0.024,0.292,0.036,0.497,0.036,0.614c0,0.164-0.024,0.362-0.071,0.596l-1.979-0.08c-0.749-0.054-1.421-0.08-2.015-0.08
			l-2.497,0.125l-1.748-0.018c-0.119-0.166-0.243-0.462-0.374-0.89V43.355z"/>
		<path fill="#FFFFFF" d="M193.39,41.131l0.409,0.267c0.106,0.083,0.172,0.184,0.195,0.303l0.019,0.089
			c-0.285,1.056-0.659,1.783-1.121,2.18c-0.463,0.397-1.038,0.596-1.726,0.596c-0.7,0-1.302-0.193-1.807-0.579
			c-0.504-0.385-0.964-1.065-1.378-2.038c-0.511,0.902-1.229,1.581-2.154,2.038c-0.925,0.457-2.059,0.685-3.399,0.685
			c-1.234,0-2.142-0.258-2.724-0.774s-0.872-1.195-0.872-2.038c0-0.392,0.086-0.789,0.258-1.192s0.451-0.804,0.836-1.202
			c0.386-0.397,1.006-0.833,1.86-1.308c0.131-0.071,0.581-0.273,1.353-0.605l4.432-1.779c0.035-0.451,0.053-0.908,0.053-1.371
			c0-1.602-0.195-2.693-0.587-3.274c-0.237-0.356-0.652-0.534-1.245-0.534c-0.594,0-1.14,0.113-1.638,0.338
			c-0.498,0.226-0.86,0.516-1.086,0.872c-0.166,0.261-0.309,0.753-0.427,1.477c-0.083,0.522-0.16,0.825-0.231,0.908
			c-0.178,0.226-0.501,0.43-0.97,0.614c-0.469,0.184-0.786,0.318-0.952,0.4c-0.641,0.309-1.151,0.463-1.531,0.463
			c-0.167-0.143-0.249-0.344-0.249-0.605c0-0.676,0.142-1.257,0.427-1.744c0.427-0.688,1.071-1.355,1.931-2.002
			s1.664-1.101,2.412-1.362c1.02-0.332,2.266-0.498,3.736-0.498c0.949,0,1.765,0.175,2.447,0.525
			c0.682,0.35,1.157,0.869,1.424,1.557c0.267,0.688,0.4,1.928,0.4,3.72l-0.036,2.936l0.036,2.154v0.551
			c0,0.499,0.067,0.84,0.201,1.023c0.134,0.184,0.306,0.276,0.517,0.276c0.128,0,0.238-0.036,0.332-0.107l0.534-0.836L193.39,41.131
			z M187.552,37.002c-0.676,0.225-1.438,0.602-2.286,1.13c-0.849,0.528-1.438,1.059-1.771,1.593
			c-0.237,0.392-0.356,0.872-0.356,1.441c0,0.51,0.154,0.932,0.463,1.264s0.664,0.498,1.068,0.498c0.664,0,1.228-0.189,1.69-0.569
			c0.628-0.51,0.996-0.917,1.103-1.219c0.107-0.302,0.16-1.159,0.16-2.571C187.624,38.046,187.6,37.524,187.552,37.002z"/>
		<path fill="#FFFFFF" d="M195.917,35.034c0.309-1.01,0.581-1.681,0.819-2.014c0.664-0.974,1.373-1.734,2.126-2.28
			c0.754-0.547,1.433-0.909,2.038-1.087c0.783-0.225,1.417-0.338,1.904-0.338c1.115,0,2.017,0.086,2.705,0.258
			c0.688,0.172,1.264,0.418,1.726,0.738c0.665,0.462,1.198,0.93,1.603,1.404c0.402,0.474,0.732,1.031,0.987,1.671
			s0.395,1.417,0.418,2.329l-1.976-0.034c-0.546,0-1.744-0.052-3.595-0.156c-0.688-0.059-1.163-0.089-1.424-0.089
			c-0.083,0-0.724,0.012-1.922,0.036h-1.53c-0.024,0.167-0.035,0.309-0.035,0.428c0,0.631,0.076,1.294,0.23,1.99
			s0.386,1.309,0.694,1.838s0.691,0.984,1.148,1.365c0.456,0.381,0.928,0.654,1.414,0.821l1.032,0.339
			c0.914,0,1.524-0.029,1.833-0.089c0.569-0.118,1.071-0.27,1.504-0.454c0.434-0.184,0.958-0.495,1.575-0.935
			c0.427,0.309,0.783,0.587,1.067,0.836c-1.044,1.151-2.126,1.984-3.247,2.5s-2.376,0.774-3.765,0.774
			c-0.938,0-1.702-0.083-2.295-0.25c-0.796-0.214-1.514-0.541-2.154-0.98s-1.192-0.986-1.654-1.639
			c-0.463-0.653-0.808-1.324-1.032-2.013c-0.297-0.903-0.445-1.627-0.445-2.174C195.667,36.797,195.75,35.865,195.917,35.034z
			 M206.256,34.279c-0.012-0.667-0.143-1.305-0.392-1.913s-0.635-1.082-1.156-1.421c-0.522-0.34-1.051-0.509-1.584-0.509
			c-0.795,0-1.513,0.35-2.153,1.05s-1.003,1.649-1.086,2.847l4.058,0.036c0.261,0,0.629-0.018,1.104-0.053
			c0.344-0.033,0.587-0.049,0.729-0.049C205.882,34.266,206.042,34.271,206.256,34.279z"/>
		<path fill="#FFFFFF" d="M211.596,43.681c0.262-0.181,0.608-0.295,1.038-0.343c0.824-0.095,1.296-0.22,1.415-0.374
			c0.238-0.308,0.358-0.937,0.358-1.885v-5.014l-0.036-1.191v-3.592l-0.035-4.107v-0.711c0-0.972-0.078-1.689-0.233-2.151
			c-0.418-0.249-0.866-0.374-1.345-0.374c-0.286,0-0.556-0.029-0.807-0.089c-0.035-0.296-0.054-0.516-0.054-0.658
			c0-0.095,0.013-0.202,0.036-0.321c0.936-0.106,1.907-0.347,2.914-0.721c1.007-0.374,1.776-0.756,2.31-1.147l0.494-0.018
			c0.105,0,0.258,0.006,0.458,0.018c0.07,4.102,0.106,6.911,0.106,8.429c0,0.45-0.013,0.812-0.036,1.084v0.106l0.036,0.338v7.877
			l0.035,2.596v0.427c0,0.51,0.082,0.872,0.248,1.084c0.141,0.154,0.441,0.25,0.901,0.285c0.247,0.023,0.736,0.083,1.468,0.177
			c0.059,0.25,0.088,0.451,0.088,0.605c0,0.119-0.012,0.285-0.035,0.498l-1.406-0.064c-0.782-0.053-1.768-0.08-2.954-0.08
			l-0.658-0.016c-0.677,0-1.655,0.054-2.937,0.16h-1.3L211.596,43.681z"/>
		<path fill="#FFFFFF" d="M96.791,88.194l0.054-1.21c1.483-0.189,2.426-0.492,2.83-0.907c0.261-0.285,0.462-1.026,0.605-2.225
			l0.231-6.336l0.267-6.442c0.024-0.392,0.036-0.628,0.036-0.712c0-1.673-0.098-2.64-0.293-2.9s-0.958-0.517-2.287-0.766
			c-0.333-0.071-0.594-0.13-0.783-0.178c-0.024-0.296-0.036-0.546-0.036-0.747V65.22c0.438-0.036,0.954-0.054,1.546-0.054
			l5.206,0.178c0.119,0.013,0.284,0.024,0.498,0.036l0.817,0.035c0.201,0.242,0.406,0.557,0.616,0.945
			c0.435,0.867,1.013,2.138,1.736,3.812l0.205,0.477l2.765,6.038c0.065,0.14,0.163,0.347,0.292,0.62
			c0.197,0.418,0.387,0.821,0.57,1.21c0.183,0.389,0.382,0.813,0.599,1.271c0.216,0.459,0.41,0.87,0.582,1.234
			c0.166-0.284,0.326-0.599,0.48-0.943c0.474-1.091,0.937-2.094,1.388-3.007c0.783-1.613,1.845-4.081,3.186-7.403
			c0.213-0.534,0.566-1.338,1.059-2.412c0.492-1.073,0.762-1.64,0.81-1.699c0.106-0.095,0.32-0.143,0.64-0.143
			c0.119,0,0.302-0.006,0.551-0.018c0.616-0.035,1.357-0.065,2.222-0.089c1.245-0.012,2.243-0.051,2.996-0.116
			c0.752-0.064,1.176-0.098,1.271-0.098c0.118,0,0.26,0.012,0.426,0.036c0.012,0.166,0.018,0.296,0.018,0.392l-0.036,0.533
			c0,0.107-0.006,0.268-0.018,0.48c-1.115,0.167-2.023,0.416-2.723,0.748c-0.487,0.237-0.729,0.534-0.729,0.89v0.268l0.306,5.445
			c0.036,0.498,0.131,2.972,0.288,7.421c0.036,0.996,0.114,2.26,0.234,3.791c0.024,0.189,0.036,0.338,0.036,0.444
			c0.012,0.285,0.074,0.469,0.187,0.552s1.177,0.427,3.194,1.032c0.012,0.19,0.018,0.332,0.018,0.427
			c0,0.25-0.006,0.499-0.018,0.748c-0.32,0-1.127-0.068-2.42-0.205c-1.293-0.136-2.503-0.204-3.63-0.204
			c-1.72,0-3.393,0.071-5.019,0.213c-0.213,0.024-0.421,0.042-0.623,0.054l0.035-1.228c0.486-0.19,1.133-0.351,1.94-0.48
			c0.569-0.096,0.931-0.256,1.085-0.481c0.154-0.225,0.231-0.854,0.231-1.886c0-0.392-0.006-0.735-0.018-1.032
			c-0.06-1.246-0.095-2.978-0.107-5.196l-0.302-6.282c-0.036-0.891-0.078-1.507-0.125-1.852l-4.431,10.18
			c-0.107,0.237-0.267,0.582-0.48,1.032c-0.273,0.582-0.457,0.979-0.552,1.192c-0.914,2.195-1.548,3.874-1.904,5.036
			c-0.095,0.297-0.237,0.683-0.427,1.157l-1.367-0.018l-0.961-2.723c-0.285-0.712-0.772-1.792-1.46-3.239
			c-0.404-0.843-0.718-1.524-0.944-2.047c-0.107-0.214-0.184-0.374-0.231-0.48l-0.214-0.444c-0.012-0.071-0.03-0.131-0.053-0.179
			l-2.654-5.712l-1.621-3.471l-0.141,8.418l-0.124,5.463c0,0.902,0.169,1.546,0.507,1.932c0.338,0.386,1.064,0.715,2.18,0.987
			l0.854,0.214v1.299c-0.688-0.012-1.427-0.063-2.216-0.151s-1.836-0.134-3.141-0.134C100.023,88.034,98.855,88.088,96.791,88.194z"
			/>
		<path fill="#FFFFFF" d="M130.301,73.815c0.13-0.048,0.237-0.083,0.32-0.107h5.303l0.392,0.036l0.036,1.19l-0.053,1.742
			l0.018,0.906l-0.018,2.684v1.83c0,1.197,0.065,2.139,0.196,2.826c0.178,0.521,0.465,0.915,0.863,1.182s0.881,0.399,1.451,0.399
			c0.534,0,0.967-0.053,1.299-0.16c0.332-0.106,0.715-0.308,1.148-0.604c0.433-0.297,0.709-0.51,0.828-0.64
			c0.344-0.38,0.581-0.729,0.712-1.049l0.125-4.425c0.023-0.461,0.036-0.841,0.036-1.137c0-0.308-0.009-0.696-0.027-1.164
			c-0.018-0.468-0.026-0.731-0.026-0.79l0.018-0.657l-0.036-0.392c-0.285-0.177-0.682-0.29-1.192-0.337l-1.192-0.09
			c-0.071-0.035-0.136-0.076-0.196-0.124c-0.047-0.237-0.071-0.415-0.071-0.534c0-0.143,0.018-0.344,0.053-0.604
			c0.393-0.06,0.731-0.09,1.017-0.09l2.748,0.036c0.738,0,1.642-0.012,2.713-0.036l0.036,1.333l-0.071,1.706l0.036,2.133
			l-0.018,3.057l-0.036,1.368l0.018,0.924c-0.048,0.616-0.071,0.966-0.071,1.049c0,0.296,0.053,0.516,0.16,0.657
			c0.107,0.143,0.208,0.214,0.303,0.214l1.637-0.054l0.213,0.035c0.036,0.416,0.053,0.653,0.053,0.712
			c0,0.084-0.018,0.214-0.053,0.392c-0.629,0.024-1.08,0.065-1.353,0.125c-1.27,0.285-2.658,0.706-4.165,1.264l-0.711-0.036
			l-0.018-2.9c-0.142,0.118-0.35,0.303-0.623,0.552c-1.044,0.925-1.939,1.551-2.687,1.877s-1.53,0.49-2.349,0.49
			c-0.973,0-1.815-0.202-2.527-0.604c-0.711-0.402-1.234-0.9-1.566-1.493c-0.249-0.462-0.416-1.126-0.498-1.99
			c-0.024-0.226-0.036-1.387-0.036-3.483l0.018-0.569c0.059-1.161,0.089-2.02,0.089-2.577c0-0.947-0.018-1.582-0.053-1.901
			c-0.012-0.154-0.071-0.332-0.178-0.533c-0.167-0.071-0.362-0.125-0.587-0.16c-0.759-0.131-1.234-0.255-1.424-0.374
			c-0.06-0.035-0.089-0.112-0.089-0.231c0-0.07,0.009-0.166,0.026-0.284C130.257,74.284,130.277,74.088,130.301,73.815z
			 M136.281,66.092c0.558,0,1.047,0.22,1.468,0.658c0.421,0.439,0.632,0.961,0.632,1.566c0,0.604-0.213,1.124-0.641,1.557
			c-0.427,0.434-0.949,0.649-1.566,0.649c-0.617,0-1.136-0.213-1.558-0.641c-0.421-0.427-0.631-0.948-0.631-1.565
			c0-0.605,0.213-1.127,0.641-1.566c0.427-0.438,0.925-0.658,1.495-0.658H136.281z M140,68.396c0-0.674,0.21-1.226,0.632-1.657
			c0.421-0.431,0.94-0.646,1.557-0.646c0.617,0,1.139,0.216,1.566,0.646c0.427,0.432,0.641,0.948,0.641,1.551
			c0,0.615-0.213,1.135-0.641,1.561c-0.427,0.425-0.949,0.638-1.566,0.638c-0.594,0-1.106-0.213-1.54-0.638
			C140.217,69.424,140,68.939,140,68.396z"/>
		<path fill="#FFFFFF" d="M150.269,87.092c0.189-0.048,0.718-0.119,1.584-0.214c0.379-0.048,0.617-0.131,0.712-0.249
			c0.118-0.178,0.178-0.6,0.178-1.264v-1.264l0.053-1.335v-1.459l0.018-0.356l-0.018-0.89l0.036-0.303l0.071-6.46v-0.498
			c0-2.207-0.06-3.571-0.178-4.093c-0.071-0.309-0.24-0.552-0.507-0.73c-0.267-0.178-0.893-0.344-1.877-0.498v-0.374
			c0-0.178,0.012-0.396,0.036-0.658l1.499-0.32c0.297-0.083,0.583-0.154,0.856-0.213c0.666-0.143,1.505-0.439,2.516-0.891
			c0.179-0.106,0.345-0.195,0.5-0.267l0.965,0.071l-0.036,10.643c1.078-0.854,2.061-1.46,2.949-1.815
			c0.888-0.356,1.812-0.534,2.772-0.534c0.912,0,1.702,0.163,2.372,0.489c0.669,0.326,1.187,0.729,1.554,1.21
			s0.628,1.065,0.782,1.753c0.106,0.463,0.16,1.353,0.16,2.67v1.139l0.018,2.51l-0.089,3.63c0.047,0.107,0.101,0.179,0.16,0.214
			c0.143,0.06,0.492,0.143,1.05,0.249c0.32,0.06,0.569,0.113,0.747,0.16c0.095,0.177,0.143,0.318,0.143,0.424l-0.018,0.142
			c-0.024,0.13-0.036,0.324-0.036,0.583l-0.41,0.026c-0.178,0-0.528-0.023-1.05-0.071c-0.997-0.095-1.833-0.143-2.509-0.143
			c-0.439,0-1.026,0.024-1.762,0.071c-0.522,0.024-1.187,0.036-1.993,0.036c-0.131,0-0.25-0.019-0.356-0.054v-0.427l-0.036-0.231
			c0-0.095,0.029-0.226,0.089-0.392c0.273-0.131,0.59-0.217,0.952-0.258c0.362-0.042,0.703-0.086,1.023-0.134
			c0.047-0.226,0.077-0.368,0.089-0.427l0.089-2.599v-4.36c0-1.293-0.071-2.168-0.213-2.625c-0.143-0.456-0.439-0.83-0.89-1.121
			c-0.451-0.291-0.997-0.436-1.637-0.436c-0.748,0-1.474,0.175-2.18,0.524c-0.706,0.351-1.308,0.763-1.806,1.237v3.114
			c0,1.708-0.015,2.989-0.043,3.844c-0.019,0.511-0.028,0.831-0.028,0.961c0,0.818,0.054,1.383,0.16,1.69
			c0.047,0.143,0.178,0.273,0.392,0.392c0.439,0.036,0.804,0.057,1.095,0.063c0.291,0.006,0.525,0.033,0.703,0.08
			c0.024,0.293,0.036,0.497,0.036,0.614c0,0.164-0.024,0.362-0.071,0.596l-1.979-0.08c-0.749-0.053-1.421-0.08-2.015-0.08
			l-2.497,0.125l-1.748-0.018c-0.119-0.166-0.243-0.463-0.374-0.891V87.092z"/>
		<path fill="#FFFFFF" d="M169.845,87.417c0.263-0.181,0.609-0.295,1.039-0.344c0.824-0.095,1.295-0.219,1.415-0.373
			c0.239-0.309,0.358-0.937,0.358-1.885v-5.014l-0.036-1.191v-3.592l-0.036-4.107V70.2c0-0.972-0.078-1.689-0.233-2.151
			c-0.418-0.249-0.867-0.373-1.345-0.373c-0.287,0-0.556-0.03-0.807-0.089c-0.036-0.297-0.054-0.517-0.054-0.659
			c0-0.095,0.012-0.201,0.036-0.32c0.936-0.106,1.907-0.347,2.914-0.721s1.777-0.756,2.31-1.147l0.493-0.018
			c0.106,0,0.258,0.006,0.458,0.018c0.071,4.102,0.106,6.911,0.106,8.429c0,0.45-0.012,0.813-0.035,1.085v0.106l0.035,0.338v7.877
			l0.036,2.597v0.427c0,0.51,0.083,0.871,0.248,1.085c0.142,0.154,0.442,0.249,0.902,0.284c0.248,0.023,0.737,0.083,1.467,0.178
			c0.059,0.249,0.088,0.451,0.088,0.605c0,0.118-0.012,0.284-0.035,0.498l-1.406-0.063c-0.783-0.054-1.768-0.08-2.955-0.08
			l-0.659-0.017c-0.676,0-1.655,0.054-2.936,0.16h-1.299L169.845,87.417z"/>
		<path fill="#FFFFFF" d="M179.936,66.768l1.519-0.569c0.381-0.143,1.376-0.635,2.983-1.477h0.783c0.202,0,0.38,0.012,0.534,0.035
			c0.012,0.345,0.018,0.582,0.018,0.713l-0.018,0.731l0.106,6.702l-0.035,2.567c0.344-0.38,0.801-0.777,1.37-1.192
			c0.118-0.083,0.444-0.252,0.979-0.508c0.534-0.255,0.961-0.418,1.281-0.489c0.569-0.13,1.074-0.195,1.513-0.195
			c1.175,0,2.133,0.148,2.874,0.444c0.742,0.297,1.442,0.763,2.101,1.397s1.213,1.521,1.664,2.66
			c0.284,0.724,0.427,1.608,0.427,2.651c0,0.677-0.115,1.439-0.347,2.287c-0.231,0.849-0.608,1.676-1.131,2.482
			c-0.379,0.582-0.916,1.151-1.61,1.709c-0.693,0.558-1.492,1.003-2.394,1.335c-0.593,0.226-1.607,0.338-3.043,0.338
			c-1.317,0-2.794-0.486-4.431-1.459c-0.428-0.262-0.736-0.439-0.926-0.534c-0.237,0.344-0.501,0.759-0.792,1.246
			c-0.291,0.486-0.489,0.807-0.597,0.961l-0.89,0.018c0-0.285,0.015-0.576,0.045-0.873c0.029-0.297,0.044-0.575,0.044-0.837
			l-0.018-1.318L182,85.131c0.023-0.189,0.035-0.522,0.035-0.998v-13.02c0-1.307-0.042-2.155-0.125-2.547
			c-0.024-0.119-0.069-0.205-0.135-0.259c-0.066-0.054-0.68-0.294-1.84-0.721V66.768z M185.88,76.521l-0.019,2.776
			c0,3.072,0.074,4.911,0.223,5.517s0.543,1.13,1.184,1.575c0.641,0.444,1.316,0.667,2.028,0.667c0.522,0,1.044-0.106,1.566-0.32
			c0.521-0.214,0.919-0.45,1.192-0.712c0.415-0.392,0.724-0.807,0.926-1.245c0.32-0.688,0.521-1.317,0.604-1.887
			c0.106-0.783,0.16-1.406,0.16-1.869c0-0.973-0.198-1.937-0.596-2.892c-0.398-0.955-0.955-1.667-1.673-2.136
			c-0.719-0.469-1.498-0.703-2.341-0.703c-0.521,0-1.139,0.148-1.851,0.445S186.105,76.295,185.88,76.521z"/>
		<path fill="#FFFFFF" d="M200.864,78.77c0.309-1.01,0.581-1.682,0.819-2.014c0.664-0.974,1.373-1.734,2.126-2.28
			c0.754-0.547,1.433-0.909,2.038-1.087c0.783-0.226,1.417-0.339,1.904-0.339c1.115,0,2.017,0.086,2.705,0.258
			c0.688,0.172,1.264,0.418,1.726,0.738c0.665,0.462,1.198,0.931,1.603,1.404c0.402,0.475,0.732,1.031,0.987,1.671
			c0.255,0.641,0.395,1.417,0.418,2.329l-1.976-0.033c-0.546,0-1.744-0.052-3.595-0.156c-0.688-0.059-1.163-0.089-1.424-0.089
			c-0.083,0-0.724,0.012-1.922,0.036h-1.53c-0.024,0.166-0.035,0.309-0.035,0.428c0,0.631,0.076,1.294,0.23,1.989
			c0.154,0.696,0.386,1.309,0.694,1.839c0.309,0.529,0.691,0.984,1.148,1.364c0.456,0.381,0.928,0.654,1.414,0.821l1.032,0.339
			c0.914,0,1.524-0.029,1.833-0.089c0.569-0.119,1.071-0.271,1.504-0.454c0.434-0.184,0.958-0.495,1.575-0.935
			c0.427,0.309,0.783,0.588,1.067,0.837c-1.044,1.15-2.126,1.984-3.247,2.5c-1.121,0.517-2.376,0.774-3.765,0.774
			c-0.938,0-1.702-0.083-2.295-0.25c-0.796-0.213-1.514-0.54-2.154-0.979s-1.192-0.985-1.654-1.64
			c-0.463-0.652-0.808-1.324-1.032-2.013c-0.297-0.902-0.445-1.627-0.445-2.174C200.615,80.533,200.698,79.601,200.864,78.77z
			 M211.204,78.016c-0.012-0.668-0.143-1.306-0.392-1.913c-0.249-0.608-0.635-1.082-1.156-1.422c-0.522-0.34-1.051-0.51-1.584-0.51
			c-0.795,0-1.513,0.351-2.153,1.05c-0.641,0.7-1.003,1.649-1.086,2.848l4.058,0.036c0.261,0,0.629-0.019,1.104-0.054
			c0.344-0.032,0.587-0.049,0.729-0.049C210.83,78.002,210.99,78.006,211.204,78.016z"/>
		<path fill="#FFFFFF" d="M217.113,87.314c0.153-0.135,0.355-0.233,0.604-0.294c0.605-0.131,1.181-0.367,1.727-0.711
			c0.106-0.284,0.16-1.243,0.16-2.878c0-2.997-0.065-5.022-0.195-6.076c-0.024-0.189-0.119-0.355-0.285-0.498
			c-0.297-0.154-0.7-0.29-1.21-0.408c-0.237-0.06-0.38-0.189-0.428-0.392l-0.053-0.658c0.878-0.119,1.673-0.419,2.385-0.899
			s1.245-0.97,1.602-1.468c0.189-0.272,0.355-0.48,0.498-0.623l1.246-0.035c0.059,0.272,0.089,0.498,0.089,0.676
			c0,0.131-0.006,0.291-0.018,0.48c-0.013,0.416-0.019,0.76-0.019,1.032c0,0.131,0.006,0.623,0.019,1.478
			c0.486-0.831,0.842-1.389,1.067-1.673c0.106-0.131,0.421-0.421,0.943-0.872c0.403-0.297,0.86-0.445,1.37-0.445
			c0.629,0,1.175,0.214,1.638,0.641c0.462,0.428,0.693,0.92,0.693,1.478s-0.175,1.059-0.524,1.504
			c-0.351,0.444-0.816,0.667-1.397,0.667c-0.51,0-1.044-0.214-1.602-0.641c-0.332-0.261-0.599-0.392-0.801-0.392l-0.124,0.018
			c-0.25,0.083-0.476,0.308-0.677,0.675c-0.332,0.591-0.498,1.205-0.498,1.844l0.035,0.479c0.048,0.875,0.083,2.926,0.107,6.154
			c0.035,0.296,0.147,0.591,0.338,0.887c0.213,0.166,0.43,0.284,0.649,0.354c0.22,0.071,0.602,0.131,1.147,0.179
			c0.546,0.049,0.878,0.123,0.997,0.226c0.118,0.103,0.178,0.268,0.178,0.496c0,0.133-0.035,0.307-0.106,0.523h-1.673l-3.399-0.16
			c-0.854,0-1.632,0.035-2.331,0.106h-0.303c-0.083,0-0.7,0.03-1.851,0.089c-0.036-0.195-0.054-0.343-0.054-0.44
			S217.077,87.498,217.113,87.314z"/>
		<path fill="#FFFFFF" d="M234.09,90.598c-1.603-0.404-2.67-0.875-3.204-1.415c-0.533-0.54-0.801-1.142-0.801-1.807
			c0-0.534,0.143-0.943,0.428-1.228c0.284-0.285,1.584-1.086,3.897-2.402c-1.175-0.7-1.981-1.377-2.421-2.029
			c-0.569-0.854-0.854-1.696-0.854-2.527c0-0.747,0.153-1.542,0.462-2.385c0.665-1.21,1.575-2.114,2.732-2.714
			c1.156-0.599,2.648-0.898,4.476-0.898c0.735,0,1.37,0.048,1.904,0.143c0.249,0.047,0.664,0.178,1.245,0.392l0.677,0.249
			c0.605,0.38,1.133,0.771,1.584,1.175c1.021-0.202,1.845-0.41,2.474-0.623c0.438-0.131,0.818-0.196,1.139-0.196
			c0.237,0,0.428,0.102,0.569,0.303c0.143,0.202,0.214,0.677,0.214,1.424c0,0.652-0.089,1.106-0.267,1.361
			c-0.179,0.255-0.362,0.383-0.552,0.383c-0.071,0-0.279-0.083-0.623-0.249c-0.807-0.368-1.453-0.563-1.939-0.588
			c0.284,0.819,0.427,1.596,0.427,2.332c0,0.866-0.252,1.693-0.757,2.482c-0.504,0.789-1.195,1.415-2.073,1.877
			c-1.222,0.653-2.444,0.979-3.666,0.979c-0.783,0-1.316-0.019-1.602-0.054c-0.415-0.047-0.996-0.154-1.744-0.32
			c-1.008,0.558-1.714,1.032-2.117,1.424c-0.202,0.189-0.303,0.415-0.303,0.676c0,0.238,0.104,0.451,0.312,0.641
			c0.207,0.19,0.555,0.32,1.041,0.392c0.095,0.013,0.226,0.036,0.392,0.071c0.629,0.048,1.465,0.071,2.509,0.071
			c0.131,0,0.552-0.018,1.264-0.054c0.202-0.011,0.374-0.018,0.517-0.018c2.835,0,4.822,0.451,5.962,1.353
			c1.127,0.901,1.69,2.005,1.69,3.311c0,0.7-0.199,1.385-0.597,2.056c-0.397,0.67-0.934,1.216-1.61,1.637
			c-0.676,0.421-1.652,0.798-2.928,1.13s-2.643,0.499-4.102,0.499c-1.578,0-2.993-0.154-4.245-0.463
			c-1.251-0.309-2.233-0.813-2.945-1.513c-0.545-0.522-0.818-1.08-0.818-1.673c0-0.582,0.229-1.101,0.686-1.558
			C230.978,91.786,232.167,91.238,234.09,90.598z M239.553,96.238c1.756-0.201,3.12-0.676,4.094-1.423
			c0.616-0.487,0.925-0.968,0.925-1.442c0-0.261-0.065-0.516-0.195-0.765c-0.131-0.249-0.365-0.496-0.703-0.738
			c-0.338-0.244-0.721-0.413-1.147-0.508c-0.605-0.118-1.406-0.178-2.403-0.178l-2.188-0.035c-1.922,0-3.212,0.236-3.871,0.711
			c-0.658,0.475-0.987,1.104-0.987,1.887c0,0.415,0.184,0.828,0.552,1.237c0.367,0.409,0.984,0.732,1.851,0.97
			s1.798,0.355,2.794,0.355C238.557,96.31,238.984,96.286,239.553,96.238z M238.54,83.443c0.794,0,1.474-0.341,2.037-1.023
			s0.846-1.741,0.846-3.177c0-1.898-0.253-3.174-0.757-3.826s-1.213-0.979-2.126-0.979c-0.119,0-0.434,0.029-0.943,0.089
			c-0.569,0.106-1.089,0.51-1.558,1.21s-0.703,1.637-0.703,2.812c0,0.32,0.042,0.955,0.125,1.904
			c0.035,0.403,0.124,0.754,0.267,1.05c0.202,0.463,0.421,0.822,0.658,1.077s0.555,0.463,0.952,0.623S238.135,83.443,238.54,83.443z
			"/>
		<path fill="#FFFFFF" d="M249.359,87.092c0.19-0.048,0.718-0.119,1.584-0.214c0.38-0.048,0.617-0.131,0.712-0.249
			c0.119-0.178,0.179-0.6,0.179-1.264v-1.264l0.053-1.335v-1.459l0.018-0.356l-0.018-0.89l0.036-0.303l0.071-6.46v-0.498
			c0-2.207-0.06-3.571-0.179-4.093c-0.071-0.309-0.24-0.552-0.507-0.73c-0.267-0.178-0.893-0.344-1.878-0.498v-0.374
			c0-0.178,0.012-0.396,0.036-0.658l1.499-0.32c0.297-0.083,0.582-0.154,0.856-0.213c0.666-0.143,1.504-0.439,2.516-0.891
			c0.178-0.106,0.345-0.195,0.499-0.267l0.965,0.071l-0.035,10.643c1.078-0.854,2.061-1.46,2.949-1.815
			c0.888-0.356,1.813-0.534,2.771-0.534c0.912,0,1.702,0.163,2.372,0.489c0.669,0.326,1.188,0.729,1.555,1.21
			c0.366,0.48,0.628,1.065,0.781,1.753c0.106,0.463,0.16,1.353,0.16,2.67v1.139l0.018,2.51l-0.089,3.63
			c0.048,0.107,0.101,0.179,0.16,0.214c0.143,0.06,0.492,0.143,1.05,0.249c0.32,0.06,0.569,0.113,0.748,0.16
			c0.095,0.177,0.143,0.318,0.143,0.424l-0.019,0.142c-0.023,0.13-0.035,0.324-0.035,0.583l-0.409,0.026
			c-0.179,0-0.528-0.023-1.051-0.071c-0.996-0.095-1.833-0.143-2.509-0.143c-0.439,0-1.026,0.024-1.762,0.071
			c-0.522,0.024-1.187,0.036-1.993,0.036c-0.131,0-0.249-0.019-0.356-0.054v-0.427l-0.035-0.231c0-0.095,0.029-0.226,0.089-0.392
			c0.272-0.131,0.59-0.217,0.952-0.258c0.361-0.042,0.703-0.086,1.023-0.134c0.047-0.226,0.077-0.368,0.089-0.427l0.089-2.599v-4.36
			c0-1.293-0.071-2.168-0.214-2.625c-0.142-0.456-0.438-0.83-0.89-1.121s-0.996-0.436-1.637-0.436c-0.748,0-1.475,0.175-2.181,0.524
			c-0.706,0.351-1.308,0.763-1.806,1.237v3.114c0,1.708-0.015,2.989-0.043,3.844c-0.02,0.511-0.028,0.831-0.028,0.961
			c0,0.818,0.053,1.383,0.16,1.69c0.047,0.143,0.178,0.273,0.392,0.392c0.438,0.036,0.803,0.057,1.094,0.063s0.525,0.033,0.703,0.08
			c0.023,0.293,0.036,0.497,0.036,0.614c0,0.164-0.024,0.362-0.071,0.596l-1.979-0.08c-0.749-0.053-1.421-0.08-2.016-0.08
			l-2.497,0.125l-1.748-0.018c-0.118-0.166-0.243-0.463-0.374-0.891V87.092z"/>
		<path fill="#FFFFFF" d="M269.648,73.815c0.13-0.048,0.236-0.083,0.32-0.107h5.303l0.392,0.036l0.036,1.19l-0.054,1.742
			l0.018,0.906l-0.018,2.684v1.83c0,1.197,0.064,2.139,0.195,2.826c0.179,0.521,0.466,0.915,0.863,1.182s0.881,0.399,1.45,0.399
			c0.534,0,0.967-0.053,1.3-0.16c0.332-0.106,0.714-0.308,1.147-0.604c0.433-0.297,0.709-0.51,0.828-0.64
			c0.344-0.38,0.581-0.729,0.711-1.049l0.125-4.425c0.023-0.461,0.035-0.841,0.035-1.137c0-0.308-0.009-0.696-0.026-1.164
			s-0.026-0.731-0.026-0.79l0.018-0.657l-0.035-0.392c-0.285-0.177-0.683-0.29-1.192-0.337l-1.192-0.09
			c-0.071-0.035-0.137-0.076-0.196-0.124c-0.048-0.237-0.071-0.415-0.071-0.534c0-0.143,0.018-0.344,0.054-0.604
			c0.393-0.06,0.731-0.09,1.018-0.09l2.748,0.036c0.737,0,1.642-0.012,2.712-0.036l0.036,1.333l-0.071,1.706l0.035,2.133
			l-0.018,3.057l-0.035,1.368l0.018,0.924c-0.048,0.616-0.071,0.966-0.071,1.049c0,0.296,0.054,0.516,0.16,0.657
			c0.106,0.143,0.207,0.214,0.303,0.214l1.637-0.054l0.214,0.035c0.035,0.416,0.054,0.653,0.054,0.712
			c0,0.084-0.019,0.214-0.054,0.392c-0.629,0.024-1.08,0.065-1.353,0.125c-1.27,0.285-2.658,0.706-4.164,1.264l-0.712-0.036
			l-0.018-2.9c-0.143,0.118-0.351,0.303-0.623,0.552c-1.044,0.925-1.94,1.551-2.688,1.877s-1.53,0.49-2.35,0.49
			c-0.973,0-1.814-0.202-2.526-0.604s-1.234-0.9-1.566-1.493c-0.249-0.462-0.415-1.126-0.498-1.99
			c-0.024-0.226-0.036-1.387-0.036-3.483l0.019-0.569c0.059-1.161,0.089-2.02,0.089-2.577c0-0.947-0.019-1.582-0.054-1.901
			c-0.012-0.154-0.071-0.332-0.178-0.533c-0.167-0.071-0.362-0.125-0.588-0.16c-0.759-0.131-1.233-0.255-1.423-0.374
			c-0.06-0.035-0.09-0.112-0.09-0.231c0-0.07,0.01-0.166,0.027-0.284S269.624,74.088,269.648,73.815z"/>
		<path fill="#FFFFFF" d="M289.668,66.768l1.519-0.569c0.382-0.143,1.376-0.635,2.984-1.477h0.783c0.201,0,0.379,0.012,0.533,0.035
			c0.012,0.345,0.019,0.582,0.019,0.713l-0.019,0.731l0.107,6.702l-0.036,2.567c0.344-0.38,0.801-0.777,1.37-1.192
			c0.119-0.083,0.445-0.252,0.979-0.508c0.533-0.255,0.961-0.418,1.281-0.489c0.569-0.13,1.073-0.195,1.513-0.195
			c1.175,0,2.132,0.148,2.874,0.444c0.741,0.297,1.441,0.763,2.1,1.397c0.659,0.635,1.213,1.521,1.664,2.66
			c0.285,0.724,0.428,1.608,0.428,2.651c0,0.677-0.116,1.439-0.348,2.287c-0.231,0.849-0.608,1.676-1.13,2.482
			c-0.38,0.582-0.917,1.151-1.61,1.709c-0.694,0.558-1.492,1.003-2.394,1.335c-0.594,0.226-1.608,0.338-3.044,0.338
			c-1.316,0-2.794-0.486-4.431-1.459c-0.428-0.262-0.736-0.439-0.926-0.534c-0.237,0.344-0.501,0.759-0.792,1.246
			c-0.291,0.486-0.489,0.807-0.596,0.961l-0.89,0.018c0-0.285,0.015-0.576,0.044-0.873s0.045-0.575,0.045-0.837l-0.019-1.318
			l0.054-0.463c0.023-0.189,0.036-0.522,0.036-0.998v-13.02c0-1.307-0.042-2.155-0.126-2.547c-0.024-0.119-0.069-0.205-0.135-0.259
			s-0.679-0.294-1.84-0.721V66.768z M295.613,76.521l-0.018,2.776c0,3.072,0.073,4.911,0.222,5.517s0.543,1.13,1.184,1.575
			c0.641,0.444,1.317,0.667,2.029,0.667c0.521,0,1.044-0.106,1.565-0.32c0.522-0.214,0.92-0.45,1.192-0.712
			c0.416-0.392,0.724-0.807,0.926-1.245c0.32-0.688,0.522-1.317,0.605-1.887c0.106-0.783,0.16-1.406,0.16-1.869
			c0-0.973-0.199-1.937-0.597-2.892s-0.955-1.667-1.673-2.136s-1.498-0.703-2.34-0.703c-0.522,0-1.14,0.148-1.851,0.445
			C296.307,76.034,295.837,76.295,295.613,76.521z"/>
		<path fill="#FFFFFF" d="M310.597,78.77c0.309-1.01,0.581-1.682,0.819-2.014c0.664-0.974,1.373-1.734,2.126-2.28
			c0.754-0.547,1.433-0.909,2.038-1.087c0.783-0.226,1.417-0.339,1.904-0.339c1.115,0,2.017,0.086,2.705,0.258
			c0.688,0.172,1.264,0.418,1.726,0.738c0.665,0.462,1.198,0.931,1.603,1.404c0.402,0.475,0.732,1.031,0.987,1.671
			c0.255,0.641,0.395,1.417,0.418,2.329l-1.976-0.033c-0.546,0-1.744-0.052-3.595-0.156c-0.688-0.059-1.163-0.089-1.424-0.089
			c-0.083,0-0.724,0.012-1.922,0.036h-1.53c-0.024,0.166-0.035,0.309-0.035,0.428c0,0.631,0.076,1.294,0.23,1.989
			c0.154,0.696,0.386,1.309,0.694,1.839c0.309,0.529,0.691,0.984,1.148,1.364c0.456,0.381,0.928,0.654,1.414,0.821l1.032,0.339
			c0.914,0,1.524-0.029,1.833-0.089c0.569-0.119,1.071-0.271,1.504-0.454c0.434-0.184,0.958-0.495,1.575-0.935
			c0.427,0.309,0.783,0.588,1.067,0.837c-1.044,1.15-2.126,1.984-3.247,2.5c-1.121,0.517-2.376,0.774-3.765,0.774
			c-0.938,0-1.702-0.083-2.295-0.25c-0.796-0.213-1.514-0.54-2.154-0.979s-1.192-0.985-1.654-1.64
			c-0.463-0.652-0.808-1.324-1.032-2.013c-0.297-0.902-0.445-1.627-0.445-2.174C310.348,80.533,310.431,79.601,310.597,78.77z
			 M320.937,78.016c-0.012-0.668-0.143-1.306-0.392-1.913c-0.249-0.608-0.635-1.082-1.156-1.422c-0.522-0.34-1.051-0.51-1.584-0.51
			c-0.795,0-1.513,0.351-2.153,1.05c-0.641,0.7-1.003,1.649-1.086,2.848l4.058,0.036c0.261,0,0.629-0.019,1.104-0.054
			c0.344-0.032,0.587-0.049,0.729-0.049C320.563,78.002,320.723,78.006,320.937,78.016z"/>
		<path fill="#FFFFFF" d="M326.846,87.314c0.153-0.135,0.355-0.233,0.604-0.294c0.605-0.131,1.181-0.367,1.727-0.711
			c0.106-0.284,0.16-1.243,0.16-2.878c0-2.997-0.065-5.022-0.195-6.076c-0.024-0.189-0.119-0.355-0.285-0.498
			c-0.297-0.154-0.7-0.29-1.21-0.408c-0.237-0.06-0.38-0.189-0.428-0.392l-0.053-0.658c0.878-0.119,1.673-0.419,2.385-0.899
			s1.245-0.97,1.602-1.468c0.189-0.272,0.355-0.48,0.498-0.623l1.246-0.035c0.059,0.272,0.089,0.498,0.089,0.676
			c0,0.131-0.006,0.291-0.018,0.48c-0.013,0.416-0.019,0.76-0.019,1.032c0,0.131,0.006,0.623,0.019,1.478
			c0.486-0.831,0.842-1.389,1.067-1.673c0.106-0.131,0.421-0.421,0.943-0.872c0.403-0.297,0.86-0.445,1.37-0.445
			c0.629,0,1.175,0.214,1.638,0.641c0.462,0.428,0.693,0.92,0.693,1.478s-0.175,1.059-0.524,1.504
			c-0.351,0.444-0.816,0.667-1.397,0.667c-0.51,0-1.044-0.214-1.602-0.641c-0.332-0.261-0.599-0.392-0.801-0.392l-0.124,0.018
			c-0.25,0.083-0.476,0.308-0.677,0.675c-0.332,0.591-0.498,1.205-0.498,1.844l0.035,0.479c0.048,0.875,0.083,2.926,0.107,6.154
			c0.035,0.296,0.147,0.591,0.338,0.887c0.213,0.166,0.43,0.284,0.649,0.354c0.22,0.071,0.602,0.131,1.147,0.179
			c0.546,0.049,0.878,0.123,0.997,0.226c0.118,0.103,0.178,0.268,0.178,0.496c0,0.133-0.035,0.307-0.106,0.523h-1.673l-3.399-0.16
			c-0.854,0-1.632,0.035-2.331,0.106h-0.303c-0.083,0-0.7,0.03-1.851,0.089c-0.036-0.195-0.054-0.343-0.054-0.44
			S326.81,87.498,326.846,87.314z"/>
	</g>
	<g>
		<path fill="#FFFFFF" d="M50.505,28.664c4.587,0,9.06,1.173,13.417,3.518c4.357,2.345,7.759,5.703,10.207,10.072
			c2.447,4.37,3.671,8.925,3.671,13.666c0,4.716-1.205,9.24-3.613,13.571c-2.41,4.332-5.78,7.695-10.111,10.092
			s-8.855,3.594-13.57,3.594c-4.716,0-9.233-1.197-13.551-3.594c-4.319-2.396-7.683-5.76-10.091-10.092
			c-2.409-4.331-3.614-8.854-3.614-13.571c0-4.741,1.224-9.296,3.671-13.666c2.447-4.37,5.849-7.727,10.207-10.072
			C41.483,29.836,45.943,28.664,50.505,28.664z M50.524,32.085c-3.995,0-7.894,1.025-11.697,3.076
			c-3.803,2.051-6.773,4.992-8.912,8.823c-2.139,3.832-3.207,7.81-3.207,11.936c0,4.127,1.05,8.081,3.15,11.86
			c2.1,3.781,5.044,6.722,8.834,8.823c3.79,2.102,7.733,3.152,11.831,3.152c4.123,0,8.073-1.051,11.85-3.152
			c3.777-2.102,6.716-5.042,8.815-8.823c2.1-3.779,3.15-7.732,3.15-11.86c0-4.126-1.063-8.104-3.188-11.936
			c-2.125-3.831-5.09-6.772-8.893-8.823C58.456,33.11,54.544,32.085,50.524,32.085z M63.383,39.504v10.149h-1.461
			c-0.512-2.6-1.631-4.641-3.357-6.121c-1.727-1.48-3.753-2.221-6.081-2.221c-2.813,0-5.167,1.121-7.06,3.364
			c-1.893,2.243-2.839,5.786-2.839,10.629c0,5.178,0.927,8.868,2.782,11.072c1.854,2.204,4.163,3.306,6.925,3.306
			c3.786,0,7.124-1.769,10.015-5.305v2.69c-3.097,3.255-7.167,4.883-12.208,4.883c-4.812,0-8.708-1.455-11.69-4.363
			c-2.981-2.909-4.473-6.671-4.473-11.284c0-4.895,1.6-8.932,4.799-12.109s7.231-4.767,12.094-4.767
			c2.201,0,4.723,0.525,7.564,1.576c0.818,0.308,1.407,0.461,1.766,0.461c0.461,0,0.852-0.154,1.171-0.461s0.519-0.807,0.595-1.5
			H63.383z"/>
	</g>
</g>
</svg>
