<?xml version="1.0" encoding="utf-8"?>
<!-- Generator: Adobe Illustrator 15.0.2, SVG Export Plug-In . SVG Version: 6.00 Build 0)  -->
<!DOCTYPE svg PUBLIC "-//W3C//DTD SVG 1.1//EN" "http://www.w3.org/Graphics/SVG/1.1/DTD/svg11.dtd">
<svg version="1.1" id="Group_1_1_" opacity="0.8" xmlns="http://www.w3.org/2000/svg" xmlns:xlink="http://www.w3.org/1999/xlink"
	 x="0px" y="0px" width="359.695px" height="118.701px" viewBox="0 0 359.695 118.701" enable-background="new 0 0 359.695 118.701"
	 xml:space="preserve">
<g>
	<path fill="#FFFFFF" d="M74.846,61.028c0,5.703-2.032,10.601-6.094,14.691c-4.063,4.092-8.936,6.139-14.619,6.139
		c-5.723,0-10.625-2.047-14.707-6.139c-4.083-4.092-6.123-8.998-6.123-14.722c0-5.723,2.036-10.625,6.108-14.707
		c4.072-4.082,8.999-6.123,14.78-6.123c5.684,0,10.547,2.041,14.59,6.123C72.825,50.375,74.846,55.286,74.846,61.028z
		 M71.125,60.999c0-4.785-1.666-8.896-4.995-12.334c-3.33-3.438-7.32-5.156-11.968-5.156c-4.746,0-8.789,1.714-12.129,5.142
		c-3.34,3.428-5.01,7.544-5.01,12.349c0,4.845,1.674,8.976,5.024,12.394s7.368,5.127,12.056,5.127c4.648,0,8.647-1.709,11.997-5.127
		C69.451,69.974,71.125,65.843,71.125,60.999z M58.879,64.368l4.834,0.527c-0.313,2.578-1.333,4.633-3.062,6.166
		s-3.97,2.301-6.724,2.301c-3.086,0-5.571-1.104-7.456-3.311c-1.885-2.207-2.827-5.226-2.827-9.054c0-3.71,0.938-6.699,2.813-8.965
		c1.875-2.266,4.414-3.398,7.617-3.398c5.391,0,8.603,2.911,9.639,8.729l-4.805,0.498c0-0.019-0.059-0.244-0.176-0.674
		c-0.801-3.145-2.344-4.717-4.629-4.717c-1.406,0-2.588,0.659-3.545,1.978c-0.957,1.318-1.436,3.482-1.436,6.488
		c0,2.754,0.469,4.854,1.406,6.299c0.937,1.445,2.178,2.168,3.721,2.168c1.211,0,2.256-0.469,3.135-1.405
		C58.263,67.063,58.762,65.853,58.879,64.368z"/>
	<path fill="#FFFFFF" d="M110.559,41.019v27.598c0,4.59-0.992,7.905-2.974,9.946s-5.142,3.062-9.478,3.062
		c-2.5,0-4.443-0.205-5.83-0.614v-5.802c2.187,0.155,3.73,0.233,4.629,0.233c2.402,0,4.043-0.448,4.922-1.348
		c0.879-0.898,1.318-2.725,1.318-5.479V41.019H110.559z"/>
	<path fill="#FFFFFF" d="M130.159,81.624c-4.375,0-7.715-1.572-10.02-4.717c-2.305-3.145-3.457-6.748-3.457-10.811
		c0-4.375,1.274-8.018,3.823-10.929c2.549-2.91,5.913-4.365,10.093-4.365c3.965,0,7.222,1.417,9.771,4.248
		c2.549,2.832,3.823,6.514,3.823,11.045c0,4.668-1.323,8.422-3.97,11.264C137.575,80.203,134.221,81.624,130.159,81.624z
		 M130.393,76.116c4.492,0,6.738-3.35,6.738-10.049c0-3.027-0.537-5.416-1.611-7.164c-1.074-1.748-2.725-2.622-4.951-2.622
		c-2.305,0-4.014,0.904-5.127,2.71c-1.113,1.807-1.67,4.204-1.67,7.192c0,3.223,0.59,5.684,1.772,7.383
		S128.342,76.116,130.393,76.116z"/>
	<path fill="#FFFFFF" d="M174.807,81.009h-6.68V61.644c0-2.089-0.444-3.56-1.333-4.409c-0.889-0.849-1.929-1.274-3.12-1.274
		c-1.895,0-3.486,0.752-4.775,2.256c-1.289,1.504-1.934,3.984-1.934,7.441v15.353h-6.68V41.02h6.68v15.586
		c1.66-4.258,4.57-6.387,8.73-6.387c6.074,0,9.111,3.486,9.111,10.459L174.807,81.009L174.807,81.009z"/>
	<path fill="#FFFFFF" d="M207.326,81.009h-6.68V62.522c0-1.953-0.449-3.423-1.349-4.41c-0.897-0.986-1.981-1.479-3.252-1.479
		c-1.737,0-3.262,0.762-4.569,2.285c-1.309,1.523-1.963,3.818-1.963,6.885v15.205h-6.681v-29.59h6.094v6.855
		c2.13-4.98,5.117-7.471,8.966-7.471c2.598,0,4.819,0.82,6.666,2.461c1.846,1.641,2.768,4.522,2.768,8.643V81.009z"/>
	<path fill="#FFFFFF" d="M230.5,81.009v-39.99h14.736c5.449,0,9.824,1.929,13.125,5.786c3.301,3.857,4.951,8.618,4.951,14.282
		s-1.699,10.4-5.099,14.209s-8.262,5.713-14.59,5.713H230.5L230.5,81.009z M237.912,75.12h6.006c3.223,0,5.957-1.211,8.203-3.633
		s3.369-6.025,3.369-10.811c0-3.907-0.98-7.212-2.943-9.918c-1.963-2.705-4.557-4.058-7.779-4.058h-6.854L237.912,75.12
		L237.912,75.12z"/>
	<path fill="#FFFFFF" d="M281.184,81.624c-4.375,0-7.715-1.572-10.02-4.717s-3.457-6.748-3.457-10.811
		c0-4.375,1.275-8.018,3.824-10.929c2.549-2.91,5.912-4.365,10.092-4.365c3.965,0,7.223,1.417,9.771,4.248
		c2.549,2.832,3.821,6.514,3.821,11.045c0,4.668-1.321,8.422-3.969,11.264C288.6,80.203,285.246,81.624,281.184,81.624z
		 M281.418,76.116c4.492,0,6.738-3.35,6.738-10.049c0-3.027-0.537-5.416-1.611-7.164c-1.074-1.748-2.725-2.622-4.951-2.622
		c-2.305,0-4.014,0.904-5.127,2.71c-1.113,1.807-1.67,4.204-1.67,7.192c0,3.223,0.592,5.684,1.773,7.383
		C277.751,75.267,279.367,76.116,281.418,76.116z"/>
	<path fill="#FFFFFF" d="M320.148,71.575l6.034,0.82c-0.78,2.676-2.305,4.883-4.569,6.621c-2.266,1.737-5.107,2.606-8.525,2.606
		c-4.102,0-7.402-1.377-9.902-4.131c-2.5-2.755-3.75-6.484-3.75-11.19c0-4.474,1.261-8.175,3.779-11.105
		c2.52-2.93,5.938-4.395,10.254-4.395c4.22,0,7.48,1.446,9.785,4.336c2.305,2.891,3.457,6.601,3.457,11.132l-0.029,0.763h-20.303
		c0,2.012,0.191,3.622,0.572,4.834c0.381,1.211,1.137,2.266,2.27,3.163c1.133,0.898,2.549,1.349,4.248,1.349
		C316.77,76.38,318.996,74.778,320.148,71.575z M319.738,62.728c-0.021-2.129-0.658-3.867-1.918-5.214
		c-1.261-1.348-2.818-2.021-4.675-2.021c-1.836,0-3.368,0.63-4.6,1.89c-1.23,1.26-1.953,3.042-2.168,5.348h13.36V62.728z"/>
</g>
</svg>
