<?xml version="1.0" encoding="utf-8"?>
<!-- Generator: Adobe Illustrator 15.0.2, SVG Export Plug-In . SVG Version: 6.00 Build 0)  -->
<!DOCTYPE svg PUBLIC "-//W3C//DTD SVG 1.1//EN" "http://www.w3.org/Graphics/SVG/1.1/DTD/svg11.dtd">
<svg version="1.1" id="Group_1_1_" opacity="0.8" xmlns="http://www.w3.org/2000/svg" xmlns:xlink="http://www.w3.org/1999/xlink"
	 x="0px" y="0px" width="359.695px" height="118.701px" viewBox="0 0 359.695 118.701" enable-background="new 0 0 359.695 118.701"
	 xml:space="preserve">
<g id="Shape_1" opacity="0.35">
	<g>
		<path fill="#BFBFBF" d="M346.732,0H12.931C5.79,0,0,9.183,0,20.51v98.191h359.662V20.51C359.662,9.183,353.873,0,346.732,0z"/>
	</g>
</g>
<g>
	<path fill="#FFFFFF" d="M74.846,61.028c0,5.703-2.032,10.601-6.094,14.692c-4.063,4.092-8.936,6.138-14.619,6.138
		c-5.723,0-10.625-2.046-14.707-6.138c-4.083-4.092-6.123-8.999-6.123-14.722s2.036-10.625,6.108-14.707
		c4.072-4.082,8.999-6.123,14.78-6.123c5.684,0,10.547,2.041,14.59,6.123C72.825,50.375,74.846,55.286,74.846,61.028z
		 M71.125,60.999c0-4.785-1.666-8.896-4.995-12.334c-3.33-3.438-7.32-5.156-11.968-5.156c-4.746,0-8.789,1.714-12.129,5.142
		s-5.01,7.544-5.01,12.349c0,4.844,1.674,8.975,5.024,12.393c3.35,3.418,7.368,5.127,12.056,5.127c4.648,0,8.647-1.709,11.997-5.127
		C69.451,69.974,71.125,65.843,71.125,60.999z M58.879,64.368l4.834,0.527c-0.313,2.578-1.333,4.634-3.062,6.167
		s-3.97,2.3-6.724,2.3c-3.086,0-5.571-1.104-7.456-3.311c-1.885-2.207-2.827-5.225-2.827-9.053c0-3.71,0.938-6.699,2.813-8.965
		c1.875-2.266,4.414-3.398,7.617-3.398c5.391,0,8.603,2.911,9.639,8.73l-4.805,0.498c0-0.019-0.059-0.244-0.176-0.674
		c-0.801-3.145-2.344-4.717-4.629-4.717c-1.406,0-2.588,0.659-3.545,1.978c-0.957,1.318-1.436,3.482-1.436,6.489
		c0,2.754,0.469,4.854,1.406,6.299s2.178,2.168,3.721,2.168c1.211,0,2.256-0.469,3.135-1.406S58.762,65.853,58.879,64.368z"/>
	<path fill="#FFFFFF" d="M110.559,41.019v27.598c0,4.59-0.992,7.905-2.974,9.946c-1.982,2.041-5.142,3.062-9.478,3.062
		c-2.5,0-4.443-0.205-5.83-0.615v-5.801c2.187,0.156,3.73,0.234,4.629,0.234c2.402,0,4.043-0.449,4.922-1.348
		s1.318-2.725,1.318-5.479V41.019H110.559z"/>
	<path fill="#FFFFFF" d="M130.159,81.624c-4.375,0-7.715-1.572-10.02-4.717c-2.305-3.145-3.457-6.748-3.457-10.811
		c0-4.375,1.274-8.017,3.823-10.928c2.549-2.91,5.913-4.365,10.093-4.365c3.965,0,7.222,1.417,9.771,4.248
		c2.549,2.832,3.823,6.514,3.823,11.045c0,4.668-1.323,8.423-3.97,11.265S134.221,81.624,130.159,81.624z M130.393,76.116
		c4.492,0,6.738-3.35,6.738-10.049c0-3.027-0.537-5.415-1.611-7.163c-1.074-1.748-2.725-2.622-4.951-2.622
		c-2.305,0-4.014,0.904-5.127,2.71c-1.113,1.807-1.67,4.204-1.67,7.192c0,3.223,0.59,5.684,1.772,7.383
		C126.726,75.267,128.342,76.116,130.393,76.116z"/>
	<path fill="#FFFFFF" d="M174.807,81.009h-6.68V61.644c0-2.09-0.444-3.56-1.333-4.409s-1.929-1.274-3.12-1.274
		c-1.895,0-3.486,0.752-4.775,2.256c-1.289,1.504-1.934,3.984-1.934,7.441v15.352h-6.68v-39.99h6.68v15.586
		c1.66-4.258,4.57-6.387,8.73-6.387c6.074,0,9.111,3.486,9.111,10.459V81.009z"/>
	<path fill="#FFFFFF" d="M207.326,81.009h-6.68V62.522c0-1.953-0.449-3.423-1.348-4.409c-0.898-0.986-1.982-1.479-3.252-1.479
		c-1.738,0-3.262,0.762-4.57,2.285s-1.963,3.818-1.963,6.885v15.205h-6.68v-29.59h6.094v6.855c2.129-4.98,5.117-7.471,8.965-7.471
		c2.598,0,4.82,0.82,6.666,2.461s2.768,4.522,2.768,8.643V81.009z"/>
	<path fill="#FFFFFF" d="M230.5,81.009v-39.99h14.736c5.449,0,9.824,1.929,13.125,5.786c3.301,3.857,4.951,8.618,4.951,14.282
		s-1.699,10.4-5.098,14.209s-8.262,5.713-14.59,5.713H230.5z M237.912,75.12h6.006c3.223,0,5.957-1.211,8.203-3.633
		s3.369-6.025,3.369-10.811c0-3.906-0.98-7.211-2.943-9.917c-1.963-2.705-4.557-4.058-7.779-4.058h-6.855V75.12z"/>
	<path fill="#FFFFFF" d="M281.184,81.624c-4.375,0-7.715-1.572-10.02-4.717s-3.457-6.748-3.457-10.811
		c0-4.375,1.275-8.017,3.824-10.928c2.549-2.91,5.912-4.365,10.092-4.365c3.965,0,7.223,1.417,9.771,4.248
		c2.549,2.832,3.822,6.514,3.822,11.045c0,4.668-1.322,8.423-3.969,11.265S285.246,81.624,281.184,81.624z M281.418,76.116
		c4.492,0,6.738-3.35,6.738-10.049c0-3.027-0.537-5.415-1.611-7.163c-1.074-1.748-2.725-2.622-4.951-2.622
		c-2.305,0-4.014,0.904-5.127,2.71c-1.113,1.807-1.67,4.204-1.67,7.192c0,3.223,0.592,5.684,1.773,7.383
		S279.367,76.116,281.418,76.116z"/>
	<path fill="#FFFFFF" d="M320.148,71.575l6.035,0.82c-0.781,2.676-2.305,4.883-4.57,6.621s-5.107,2.607-8.525,2.607
		c-4.102,0-7.402-1.377-9.902-4.131s-3.75-6.484-3.75-11.191c0-4.473,1.26-8.174,3.779-11.104s5.938-4.395,10.254-4.395
		c4.219,0,7.48,1.446,9.785,4.336c2.305,2.891,3.457,6.602,3.457,11.133l-0.029,0.762h-20.303c0,2.012,0.191,3.623,0.572,4.834
		s1.137,2.266,2.27,3.164s2.549,1.348,4.248,1.348C316.77,76.38,318.996,74.778,320.148,71.575z M319.738,62.728
		c-0.02-2.129-0.658-3.867-1.918-5.215s-2.818-2.021-4.674-2.021c-1.836,0-3.369,0.63-4.6,1.89s-1.953,3.042-2.168,5.347H319.738z"
		/>
</g>
</svg>
